<?xml version="1.0" encoding="utf-8"?>
<!-- Generator: Adobe Illustrator 26.0.1, SVG Export Plug-In . SVG Version: 6.00 Build 0)  -->
<svg version="1.1" id="Layer_1" xmlns="http://www.w3.org/2000/svg" xmlns:xlink="http://www.w3.org/1999/xlink" x="0px" y="0px"
	 viewBox="0 0 1445.2 1200.1" style="enable-background:new 0 0 1445.2 1200.1;" xml:space="preserve">
<style type="text/css">
	.st0{fill:none;stroke:#FDFDFD;stroke-width:4;}
	.st1{fill:none;stroke:#F8F8F8;stroke-width:4;}
	.st2{fill:none;stroke:#F8F8F8;stroke-width:2;}
</style>
<g id="Layer_2">
</g>
<g id="Layer_2_00000031915034852271549200000017229146697470732728_">
</g>
<g id="Layer_1_00000147939418981512096110000009213592979999937456_">
	<g id="coffee" transform="translate(0.557 0.529)">
		<path class="st0" d="M736.4,847.4c115.5,19.2,235,16.1,349.1-10.7c36.4-8.5,71.9-19.4,106.3-34c40.4-17.2,78.7-38,113.2-65.3
			c28.6-22.6,53.4-48.6,71.6-80.4c15-26.2,23.2-54.3,23.8-84.7c0.3-17.2-1.5-33.9-6.8-50.3c-0.4-1.5-1-3-1.6-4.5
			c-1-2.1-2.5-3.3-5.7-2.8c-0.7,1.1-1.2,2.4-1.5,3.7c0.1,1.8,0.4,3.6,0.9,5.4c3.2,14.1,4.9,28.5,5.2,43c0.2,22-4.8,42.9-13,63.1
			c-9.6,23.7-23.6,44.6-40.6,63.6c-26.9,29.9-59,53.1-94.1,72.3c-44.1,24.1-90.9,41.1-139.3,53.8c-32,8.4-64.6,14.8-97.4,19.1
			c-23.7,3-47.5,5.1-71.4,6.5c-24.4,1.4-48.7,2-73.1,1c-220.2-9.3-349.3-85.5-349.3-85.5c-27.2-15-52.7-32.6-76.1-53.3
			c-18.9-16.7-36.1-34.9-49.7-56.1c-21.4-33.2-32.4-69.3-29.3-109.2c1.2-14.9,4.3-29.6,9.2-43.7c1.2-3.5,2.4-7,3.4-10.5
			c0.4-1.3,0-2.9,0-5.3c-1.9,1.1-3.4,1.5-4,2.4c-1.8,2.7-3.3,5.5-4.6,8.5c-11.1,26.7-14.9,55.9-10.8,84.5
			c3.9,28.3,14.4,54,29.4,78.1c17.1,27.4,38.7,51.6,63.9,71.8c26.3,21.1,52.9,39.3,83.5,54.3C593,814.4,664.2,835.4,736.4,847.4z"/>
		<path class="st0" d="M708.6,829.1"/>
		<path class="st0" d="M873.8,894.8c60.9,1.7,122.7-5.4,182.2-16.7c60.3-11.5,118.8-28.8,174.5-54.8c42.5-19.8,82.1-44.1,117.1-75.7
			c23.4-21.1,43.4-45,58.7-72.6c13.1-23.6,21.6-48.6,24.2-75.6c2.7-28.5-1.2-57.3-11.4-84c-8.5-22.6-21-42.9-34.5-62.7
			c-2.2-3.2-4.7-6.3-7.5-9c-9-8.6-17.7-17.5-27.4-25.2c-15.2-12-30.9-23.1-46.6-34.4c-14.9-10.7-30-21.1-46.2-30
			c-0.9-0.6-1.7-1.2-2.5-1.9c-0.2-0.6-0.4-1.1-0.4-1.7c0.2-2,0.5-4.1,0.9-6.1c4.5-23.8,8.3-47.6,10-71.7c1.6-23.2,2.8-46.4-0.3-69.5
			c-1.3-9.6-2.7-19.1-3.9-28.7c-0.8-7.3-2.6-14.4-5.3-21.3c-5.9-14.7-14.9-27.4-25.8-38.8c-18.6-19.2-40.3-34.1-64.1-46.1
			c-34.1-17.2-69.9-29.4-106.9-38.4c-51.8-12.7-104.4-18.5-157.7-19.5c-43-0.9-86,1.8-128.6,8.1c-52,7.8-102.9,20-151.2,41.2
			c-22.8,10-44.6,21.9-64.3,37.2c-16.9,13.1-31.5,28.3-41.9,47.1c-5.4,9.7-9.6,20-10.8,31.1c-0.9,8-1.1,16.1-1.2,24.1
			c-0.1,14.1,0.1,28.1,0.1,42.1c0,2.2,0.7,4.6-1.2,6.9c-1-0.2-2-0.5-3.1-0.8c-6.2-1.8-12.2-4.2-18.5-5.3c-9.2-1.6-18.7-2.2-28-3.4
			c-8.7-1-17.5-0.6-26.1,1.2c-27,5.4-49.8,18.6-69,38c-5.7,6-10.4,12.9-13.9,20.4c-7.9,16.2-12.2,33.9-12.8,51.9
			c-0.5,22.6,6.1,43.1,17.6,62.2c6.2,10,13.3,19.3,21.2,28c1.4,1.6,3.6,3,3.6,6.2c-1.1,1.3-2.2,2.9-3.5,4.5
			c-15.4,18.6-27.7,39.6-36.4,62.2c-12.8,34-15.9,68.8-8.6,104.4c5.9,28.8,18.5,54.7,35.2,78.7c19.6,28.2,44.1,51.7,71.3,72.4
			c46.3,34.6,98.5,56.3,153.2,73.8c57.4,18.4,115.7,32.8,175.4,41.7c32.7,4.8,65.6,8.2,98.6,9.9
			C863.2,894.5,868.5,894.7,873.8,894.8z M476.6,784.2c-17.9-10.1-34.9-21.5-50.7-34.5c-24-19.9-45.7-42.1-62.5-68.5
			c-14.6-22.9-25.1-47.4-29.7-74.4c-6-35.6-0.6-69.6,14.3-102.2c7.6-16.5,17.1-32.1,28.2-46.5c1-1.3,2-2.5,3.2-3.6
			c0.2-0.3,0.8-0.3,1.7-0.6c24.3,18.1,50.4,33.7,77,48.2c6.4,23.3,12.3,46.2,22.7,67.6c0.1,0.2,0.8,0.2,1.7,0.4
			c-6.8-21.6-14.1-42.7-20-65.3c6.6,1.7,11.3,4.3,16.5,7.1c7.6,15.8,13.7,32.7,23.8,47.6c-1.6-7.7-5.1-14.6-8.3-21.9
			s-7-14.3-9.8-22.5c4.9,0.4,7.5,2.8,9.8,6.2c6.2,9.1,12.4,18.2,18.8,27.2c2.6,3.5,5.7,6.6,8.5,9.9c1.1,1.2,2,2.5,2.9,3.8
			c9.5,16.3,19,32.6,28.5,48.9c0.4,0.8,0.7,1.6,1.2,2.8c-4.4,2.6-9,2.8-14.4,2.5c-1.2-1.9-2.6-3.9-3.8-6.1
			c-7.5-13.7-15-27.4-22.5-41.1c-1.1-2.1-1.9-4.5-5.3-6.5c1.4,6.1,4,10.4,6.2,14.8c2.1,4.3,4.4,8.5,6.7,12.8
			c2.4,4.5,4.9,8.9,7.3,13.3c2.5,4.2,4.8,8.4,7.3,12.9l-2.3,2.7l4.7,1.7l11.2,20.2c-6.1,1.4-11.3,3-16.8,2.5
			c-0.6-0.1-1.1-0.8-1.6-1.2c-2.9-0.1-3.5-2.6-4.5-4.6c-7.6-15.2-15.3-30.3-22.8-45.6c-3.6-7.4-6.8-15.1-10.2-22.6
			c-1-2.2-1.6-4.7-4.5-6.8c-0.1,3,0.6,5.9,1.9,8.5c5,11.3,9.6,22.8,15.1,33.9c7,14.2,14.6,28.1,21.9,42.1c0.3,0.8,0.6,1.6,0.8,2.4
			l-3.2-0.5c0.1,0.6,0.1,1.4,0.5,1.8c4.8,5.2,9.6,10.4,14.4,15.6c1.5,1.7,3.3,3.2,4.9,4.8c17.3,17.1,34.5,34.2,51.8,51.2
			c4.7,4.6,9.7,9,14.7,13.4c1.3,0.9,2.7,1.7,4.2,2.5l-15.2-15.2c-19.2-19.1-38.3-38.3-57.5-57.4c-0.8-1-1.7-2-2.4-3
			c3-2.4,6.4-1.1,9.4-1.8c3-0.5,6-0.8,9.1-0.9l11.2,10.4l-4.7,3l8.2,0.5l4.6,4l-2.1,2.7c0.3,0.2,0.6,0.7,0.9,0.7
			c3.8-0.4,6.5,1.3,9.2,3.8c17.2,16.1,35.1,31.5,53.6,46.1c1.1,0.7,2.3,1.3,3.6,1.7c-1.8-1.7-3.4-3.6-5.3-5.3
			c-10.1-9-20.4-17.8-30.5-26.8c-1.6-1.6-3-3.2-4.4-5l19-0.8l5.4,5.4c-5,1.8-9.4,0.2-13.5,2c2.9,0,5.8,0.2,8.7,0
			c4.9-0.4,9.7,1.5,12.9,5.3c2.2,2.4,4.6,4.6,7,6.7c1,0.7,2.1,1.4,3.2,1.9c-1.6-2-3.2-4.1-4.9-6.1c-1.4-1.7-3-3.3-5.3-5.7
			c9.2-0.4,17.2-1.9,23.7,5.1c1.5,1.6,3.8,2.6,5.8,3.8l-6-7c1.1-0.3,2.2-0.6,3.3-0.7c4.1,0.2,8.2,0.4,12.3,0.9
			c10.2,1.2,20.5,1.4,30.7,2.4c4.5,0.4,8.9,1.8,12.9,4.1c11.2,6.2,22.7,12.1,34.1,18c8.7,4.6,17.5,9,26.4,13.4c2,0.9,4,1.5,6.1,2.1
			c-1.7-1.5-3.7-3-5.7-4.2c-14.6-7.8-29.3-15.5-43.9-23.2c-4.6-2.3-9.1-4.9-13.2-8c1.1-0.3,2.3-0.3,3.4-0.2c3.1,1,6.1,2.2,9,3.5
			c18.9,8.9,37.9,17.8,56.8,26.7c1.4,0.7,2.9,1.3,4.5,1.6c-5.5-4.2-11.9-7-18-10.1c-6.3-3.3-12.8-6.5-19.1-9.6s-12.7-6.2-18.8-9.8
			c3.8-0.2,7,1.4,10.3,2.9c14.9,6.7,29.7,13.4,44.6,20.1c2.4,0.8,4.8,1.6,7.2,2.2c-7.6-3.9-15.3-8-23-11.8
			c-6.1-3.1-12.4-5.8-18.6-8.7c-1.8-0.9-3.4-1.9-5.2-2.9c4.5-0.5,8.2,1.9,12.2,3.4c16,5.8,31.7,12.2,47.4,18.4
			c0.5,0.3,1,0.7,1.4,1.1c-2.3,3.1-5.3,3.6-8.8,3.1v2.9l5.6,0.1c-2.5,3.3-4,3.7-8.2,2.6c0.2,0.9,0.4,1.8,0.7,3.2
			c1.5-0.1,3-0.3,4.5-0.7c7.8-2.7,15.5-5.5,23.2-8.3c2.5-1.2,5.5-0.7,7.4,1.3l-21.7,9.8c3.3,2.6,7.1,4.5,11.2,5.6
			c8.8,2.4,17.6,4.6,25.9,8.6l-0.1-0.1l6.5,0.7l-2.7,6.3l-8.3,3.4l-3.8-5.9c-15.7-6.2-31.6-12.5-47.6-18.8c-0.5-0.1-1.3,0.3-2.5,0.6
			c0.7,1.3,1.1,2.7,2,3.3c2.4,1.4,4.8,2.6,7.4,3.6c10,3.8,20.1,7.4,30.2,11.2c2.3,0.8,4.9,1.2,6,3.7l-4,1l6.5,2.3
			c-0.2,0.4-0.2,1-0.5,1.1c-3.1,1.2-6,2.3-9.1,3.4l-40.2-16.8c-1.9-0.9-3.8-1.6-5.8-2.1c-0.9-0.2-2,0.4-3.3,0.6
			c0.9,3,3.3,3.7,5.3,4.5c7.3,3,14.5,5.9,21.8,8.8c4.9,1.9,9.7,4,15,6.2c-2.4,2.6-5.1,2.8-7.6,3.3c-14.6-8-28.8-16.5-44.4-22.3
			c-0.8-0.3-1.7,0-3.6,0c1.2,1.6,1.8,2.8,2.7,3.3c5.5,2.8,11.1,5.5,16.7,8.2c6,2.9,12,5.7,18,8.7c1.5,0.8,3,1.9,4.8,3
			c-3.6,4.1-8.2,5.5-12.7,7.8c-1.7-0.7-3.4-1.2-5.1-1.9c-14.1-5.5-28.1-11.2-42.3-16.6c-2.8-1-5.9-1.1-8.8-0.4
			c-10.6-5-21.2-9.8-31.8-14.9c-21.1-10.2-42.1-20.5-63.2-30.7c-0.7-0.3-1.6-0.5-2.4-0.6c0.8,1.4,1.6,2.7,2.5,4.1l-2.6,1.3v1.4
			c1.5,1.9,2.8,3.9,5.6,2.8l0,0c9.2,4.2,18.4,8.3,27.6,12.5c19.9,9.1,39.7,18.2,59.6,27.1c4.3,1.9,8.5,4.4,13.6,4.1
			c0.9,0.1,1.8,0.4,2.6,0.9c12,4.6,24,9.3,36,14c1.4,0.7,2.8,1.5,4.1,2.3l-5.3,9.5c-2.2-0.8-4.2-1.3-6-2.1
			c-15.5-6.4-31-12.8-46.5-19.2c-1.6-0.6-3.2-2.1-5.4-0.4c1.1,2.2,3.2,3.1,5.2,4c4.4,2,8.8,3.9,13.3,5.7
			c10.8,4.4,21.7,8.7,32.6,13.1c1.9,0.7,3.7,1.7,5.6,2.5c0.7,3.6,1.3,6.9,2.1,11c-6.7-0.9-12.4-3.3-18.1-5.1
			c-5.7-1.8-11.4-3.7-17.1-5.5c-5.9-2.1-11.9-3.7-18.1-4.7c0.6,0.7,1,1.8,1.7,2.2c3.3,1.7,6.6,3.2,10.1,4.4
			c12.2,4,24.5,7.8,36.7,11.9c15,5.1,30.2,9.6,46.3,12.2l3.3-2.2c2.5,0.1,5.2,0.3,8,0.4c11.9,0.3,23.9,1,35.8,0.7
			c12.1-0.2,23.8-4,33.8-10.7c9.4-6.2,18.2-13.2,25.1-22.3c1.9-2.6,4.1-5,6.2-7.4l4.7,1.1c1.4-1.4,2.6-2.8,3.8-4.4
			c6.2-9.3,14.3-17.3,23.7-23.5c0.6-0.2,1.2-0.3,1.8-0.3c-3.3,7.1-7.3,13.5-15.1,16.5c-1.8,0.7-3.3,1.9-4.3,3.6l6.7-1.2
			c-0.2,1.5-0.5,3-0.7,4.3c0.9-0.6,1.7-1.3,2.4-2.2c5.2-8.4,14.3-9.8,23.1-13.4c-0.3,2.4-0.5,3.9-0.7,5.6l2.5,2
			c2.4-2.7,4.7-5.1,6.9-7.7c2.9-3.6,6.6-6.4,10.9-8.1c32.2-13,64.3-25.8,96.5-38.7c4.7-1.9,9.6-3.3,14.3-5.1
			c1.5-0.5,2.7-1.4,3.8-2.5c-4.2-0.6-8,0.8-11.7,2.2c-16.6,6.2-33.2,12.3-49.6,18.8c-14.9,5.8-29.7,12.1-44.6,18.1
			c-2.2,0.7-4.5,1.3-6.7,1.8c4.3-4.9,8.4-10,12.9-14.7c2-1.9,4.4-3.3,7-4.3c29-12.2,58-24.5,87-36.8c2.2-1,4.9-1.3,6.8-4.4
			c-9,1.5-16.5,5.3-24,8.1s-15,5.8-22.4,8.9c-7.6,3.2-15.2,6.5-22.8,9.8c-7.4,3.1-14.8,6.4-22.7,9.8c-0.2-2.5,1.6-3.4,2.5-4.8
			c1.2-1.7,2.6-3.2,3.6-5c0.6-1.2,1.2-2.5,1.7-3.8l0.2,0.2c6.8-5.9,14.9-9.6,23-13.3c17-7.8,34.1-15.6,51.1-23.4
			c2.6-1.2,5.7-1.7,7-4.7c-2.4,0.5-4.8,1.2-7,2c-16.9,7.3-33.7,14.8-50.5,22.2c-1.4,0.7-2.9,1.1-4.4,1.2
			c6.2-6.5,12.9-12.4,21.1-16.2c14.2-6.6,28.3-13.4,42.4-20.1c2.5-1.2,4.8-2.6,6.9-4.4c-3.1-0.6-5.5,1.1-8,2.2
			c-2.8,1.1-5.5,2.5-8.2,3.7l-8.8,4c-2.7,1.2-5.4,2.5-8.1,3.7c-2.8,1.4-5.7,2.4-8.7,3c0.6-0.9,1.4-1.8,2.2-2.6
			c5.3-4.4,10.5-9,16-13.1c4.4-3.1,8.9-6,13.5-8.6c4.9-3,9.9-5.8,15-8.4c2.1-0.9,4.4-1.2,6.6-0.8c8.6-4.3,17.3-8.5,25.8-13
			c4.7-2.5,9.9-3.7,15.2-3.5c14.4,0.4,28.7,0.1,43-2.4c-10.3-1.8-20.8,0.2-31.3-1.2c7.5-2.7,15.2-3.5,23.1-5
			c7.9-1.5,15.8-2.8,23.7-4.2s15.7-3,23.8-4.5c-0.7-2.1-2.4-1.4-3.4-1.2c-17,2.7-34,5.4-51,8.2c-6.3,1.1-12.6,2.2-19.3,3.3
			c0.6-0.8,0.8-1.2,1.2-1.4c17.6-8.5,34.8-17.9,54.5-20.7c7-1,13.8-3.1,20.6-4.7c0-0.4,0.1-0.7,0-0.8c-0.2-0.2-0.4-0.3-0.6-0.3
			c-7.9,1.4-15.8,2.8-23.7,4.2c-0.1,0-0.3-0.3-1.1-0.7c10.3-5.1,21.4-5.3,32.1-7.7c-5.7-2.2-11.2,2-17.5,0.2c2-2,3.5-3.4,5.8-5.6
			c-4.3-0.1-6.7,1.8-9.4,2.9c-2.9,1.2-5.8,2.6-8.8,3.9c-2.7,1.3-5.6,2.2-8.5,2.7c-3.8,0.8-7.7,1.1-11.2,2.4
			c-20.1,7.3-39.1,17-58.4,26.3c-2.6,1.3-5.2,2.9-9.6,2.8c1.1-1.1,2.3-2,3.6-2.8c14.7-7,29.5-14.1,44.2-21.1
			c3.1-1.5,6.7-2.3,7.5-6.2c2.4-0.6,4.4-1.1,6.4-1.6s4-0.8,6-1.4c10.6-3.1,21.2-6.1,31.7-9.4c3.5-1.2,6.9-2.7,10-4.7
			c7.8-4.9,15.6-9.8,23-15.2c9.9-7.2,19.5-14.7,28.9-22.4c17.5-14.4,31.3-31.7,40.3-52.6c3.5-8.1,5.8-16.5,7-25.2
			c0.3-3.2,0.8-6.3,1.2-9.3c3-0.9,3.8,1,4.8,2.4c14.4,19.9,26.5,40.8,33.4,64.6c12.9,44.2,8.5,86.8-11.1,128.1
			c-13.1,27.8-31.8,51.5-53.8,72.8c-39.5,38.3-86,65.8-136,87.7c-57.8,25.3-118.2,42-180.4,52.1c-25,4-50.1,7-75.3,9.1
			c-121.3,10.1-242.3-10.2-357.8-46.7C554.4,820.4,513.9,805.3,476.6,784.2z M1257,367.5c15.5,10.6,31,21.2,46.5,31.9
			c3,2.1,6,4.2,8.9,6.4c1.1,0.8,1.9,1.8,3.8,3.6c-6.4,0.7-11.5,1.1-16.3,1.7c-14.6,2.1-28.6,7.3-40.9,15.4
			c-10.2,6.6-20.3,13.4-28.8,22.2c-0.8,0.7-1.7,1.4-2.7,2c-0.1-1.1-0.1-2.3,0-3.5c8.3-25.1,15.4-50.5,21.2-76.2
			c0.4-1.9,1.2-3.8,1.7-5.5C1253.6,364.3,1255.2,366.3,1257,367.5z M469.3,402.9c13.5-7.7,27.1-15.5,40.6-23.3
			c2.2-1.3,4.4-2.3,6.6-3.5c3,2,6.1,3.2,6.6,6.7c-0.6,2.6-2.7,3.2-4.4,4.3c-14.4,9-28.9,17.9-43.3,26.9c-2.1,1.3-4,3-6,4.5
			c5.3-2.7,10.7-5.1,15.8-8.1c10.7-6.2,21.1-12.8,31.7-19.2c2.1-1.4,4.3-2.5,6.6-3.8c2.7,2.8,2.9,5.9,3.4,9.5
			c-1.9,1.2-3.8,2.4-5.7,3.6c-9.8,6.3-19.7,12.4-29.5,18.8c-2.6,1.9-5,3.9-7.3,6.1c3.8-2.1,7.7-4.1,11.4-6.3
			c8.6-5.2,17.2-10.5,25.8-15.8c1.7-1.1,3.6-1.9,6-3.1c0.9,2.6,1.6,4.7,2.4,7c-1.8,1.3-3.2,2.5-4.7,3.4
			c-8.2,5.2-16.4,10.2-24.5,15.4c-1.3,1-2.4,2.1-3.5,3.3c4.6-2.2,9.4-4.6,13.8-6.8c4.4-2.4,8.6-5.2,12.9-7.8c2-1.1,4-2.1,5.8-3.1
			c3.2,1.9,2.8,4.9,4.1,7.7c-2,1.5-3.7,3-5.5,4.3c-5.2,3.7-10.5,7.3-15.7,11.1c-1.7,1.5-3.3,3-4.8,4.6c-1.3,0.2-2.6,0.3-3.9,0.1
			c-8-2.2-15.7-5.6-22.8-10c-0.3-0.3-0.4-0.8-0.6-1.2c-5.2-0.4-9-3.4-13.4-6.3l2.5-3.4l-5.5,1.8c-9.4-4.4-18.2-10-26.2-16.6
			c0.2-3.7,2.5-5.1,4.5-6.5c8.1-5.6,16-11.7,24.6-16.5c11.8-6.5,24.2-12.1,36.3-18.1c0.6-0.2,1.2-0.3,1.9-0.4
			c4.2,3.1,5.7,5.1,9,11.7c-2,1.3-4.1,2.6-6.2,3.9c-13,7.8-26,15.5-39,23.4c-2.2,1.4-4.1,3-6.1,4.7
			C465.1,404.9,467.3,404,469.3,402.9z M537.2,431.3c0.9,1.7,1.6,3.1,2.2,4.3c-3.6,5.5-9,9.5-15.3,11.3c-3.9-1.4-8-2.8-12.1-4.2
			c-1.8-0.4-3.3-1.7-4-3.4c0,0,0,0,0,0c4.6-2.8,9.4-5.3,13.9-8.2c4-2.5,7.9-5.3,12.3-8.2l2.4,4.3c-5.5,5.3-12.6,8.3-17.4,14
			C525.8,439.3,530.7,434.2,537.2,431.3z M530,449.5c2.5-4.6,6.3-6.1,9.8-7.9C537.9,445.3,535.7,448.7,530,449.5z M541.8,446
			c2.2,1.7,3.3,4.3,3.1,7.1c-3.2,0.4-5.5-0.4-8.1-2.7L541.8,446z M427,392.7c-1.5-0.9-2.9-1.9-4.2-3c-6.8-6.5-12.2-14.5-15.6-23.3
			c-1-2.6-1.8-5.2-2.4-7.9c-3.5-15.9,3.2-28.1,18.5-33.9c5.9-2.3,12.1-3.2,18.3-2.8c20.8,1.6,38.7,9.2,52.9,24.8
			c1.7,1.8,3.9,3.4,3.8,6.7C473.3,363.7,447.7,373.4,427,392.7z M513.2,348.3c-1.2-1.4-2.4-2.8-3.7-4.4c-8-12-19.1-20.4-32-26.4
			c-10.6-5.1-22.1-8.1-33.8-9c-15.8-1.1-30.1,3.2-41.9,14.1c-11.2,10.3-13.9,23.5-10.9,37.9c2.5,11.5,8,22.2,16,30.9
			c13.2,14.9,27.9,27.9,45.4,37.7c19.1,10.7,38.4,20.7,59.4,27.2c7.3,2.3,14.2,5.3,21.5,7.6c5.7,1.9,11.5,3.2,17.7,4.8
			c3.2,3.4,4.3,8.2,6.4,12.5c2.2,4.5,4.4,9.1,6.5,13.7c2,4.3,4.4,8.4,6.5,14.1c-3.3-0.8-5.3-1.1-7.1-1.8
			c-16-5.8-32.1-11.3-47.9-17.5c-27.4-10.6-53.9-23.8-78.9-39.2c-3.5-2.2-7-4.5-10.6-6.4c-13.5-7-24.4-17.6-33.5-29.3
			c-19.5-25.2-25.7-61-9.1-90.7c7.2-12.8,17.7-21.3,33-23.2c12.4-1.4,24.8-1.2,37.1,0.7c10.9,1.6,20.5,6.5,29.9,12
			c9.8,6,18.9,13.1,27,21.3C514,338.6,514.9,343,513.2,348.3z M464.8,490.1c-22.6-11.4-44.3-24.4-65.1-38.8
			c-18.1-12.4-32.1-28.9-43.1-47.7c-9.1-15.3-13.6-33-13-50.8c0.6-16.6,4.4-32.9,11-48.1c3.2-7.7,7.9-14.6,13.9-20.4
			c17.7-16.9,38.1-28.8,62.4-33.1c4.5-0.9,9.1-1.3,13.7-1.1c11.2,0.7,22.4,1.7,33.6,2.8c9.4,0.9,17.6,4.8,25.2,11.3
			c1.4,6.7,1.6,14.1,2.4,22.1l-5.2-2.5c0.5,4.8,7.7,6,5.3,11.9c-5.1-2-8.7-7.1-15.4-8.6c0.9,1.7,1.1,2.8,1.8,3.3
			c3.6,2.5,7.3,4.8,11,7.1l4.2,2.7c0.4,3.1,0.7,6.3,1.2,10.4c-1.9-1.1-3-1.6-4-2.3c-6-4.6-12.1-9.2-18.1-13.7
			c-1.7-1.3-3.4-3-7.1-2.7c9.5,8.9,19.4,15.4,29.4,22.1c0.7,2.2,1.9,4.5,0.5,7.7c-1.7-1.3-3.1-2.2-4.5-3.3
			c-12.8-10.3-26.5-19.1-42.5-23.5c-18-5-36.5-5-54.6-1.2c-15,3.1-25.8,12.7-33.1,26c-11.6,21-12.9,43.3-7,66.2
			c1.5,5.5,3.4,11,5.5,16.3c3.3,8.6,8.2,16.5,14.5,23.2c9.9,10.8,21.2,20.4,33.5,28.4c23.3,15.3,48.3,27.4,73.1,39.9
			c2.7,1.3,5.4,2.5,8.2,3.6c22.8,8.7,45.2,18.4,69,23.9c4.4,1,8.3,2.8,9.9,7.5c0.1,0.8,0.1,1.6,0,2.4c-1.6,0-3.2-0.2-4.7-0.3
			c-17.6-4.4-35.1-9.3-52.2-15.4C504.1,508.2,484.2,499.7,464.8,490.1z M589.1,549.1l-5-5.4c3.3-1.5,5.2-1.1,6.4,1.5
			C587.9,545.8,589.1,547.7,589.1,549.1z M591.6,558.8c3.8,4.9,6.4,11,11.1,15.3c2.6-2.1,0.2-3.7,0.4-5.2c1.7,1.5,3.1,3.2,4.3,4.9
			c5.7,9.1,11.3,18.2,17,27.4c0.5,0.7,0.9,1.6,1.3,2.4c-1.8,2.3-4.3,1-6.1,1.6c-5.4-4.6-48.1-59.4-50.5-64.7c3.9,0,7.8,0.6,11.5,1.9
			C584.5,548.2,587.8,553.8,591.6,558.8z M638.2,625.8c-0.8,2-2.2,1.6-3.3,0.7c-1.5-1.4-3-2.9-4.2-4.5c-2.9-3.8-5.6-7.8-8.8-12.3
			l5.9-2c2.8,2.3,4.9,4.6,5.4,8l0,0l-3,1.3L638.2,625.8z M634.9,608.9l2.4,3.9C635.6,612.1,635,610.5,634.9,608.9z M656.2,640.7
			c-1.8,1.3-4.4,1.1-6-0.5c-3.3-2.7-6.5-5.6-10.6-9.2C644.9,630.3,648.2,632.4,656.2,640.7z M649.9,630.5l0.9-0.9l1.6,2.4
			L649.9,630.5z M708.7,676.3c3.4,0.7,5.7,3,7.6,5.8C713,681.2,710.9,678.8,708.7,676.3z M720.4,688.8c-5.6,2-8.6,1.9-14.1-0.9
			C711.7,686.9,715.8,686.8,720.4,688.8z M711.4,682.6c-8.4,2.9-13.2,0.8-19-7.3h9.2L711.4,682.6z M541.4,548.5
			c-3.9-5.7-8.4-11.2-12.6-18.5l8.6,2.1c5.1,6.9,10.1,13.8,15.3,20.5c3.6,4.7,7.7,9.1,11.5,13.7c0.9,1.1,1.7,2.2,2.4,3.3
			c7.6,11.7,15.1,23.5,22.7,35.3c0.7,1,1.1,2,1.9,3.4c-0.8,0.5-1.7,0.9-2.5,0.9c-0.9,0.1-1.8,0.1-2.7,0c-1.4-1.9-3.1-4.1-4.5-6.4
			c-6-9.7-12.1-19.5-18.1-29.2c-1.3-2.1-2.3-4.4-4.7-5.7c-2.1,1.7-0.7,3.1,0,4.3c4.8,8.3,9.7,16.6,14.7,24.9c2.4,4,4.9,7.7,7.5,11.7
			c-2.5,2.5-5,2.6-8.5,1.9l-24.3-46.6l4.8,2.4C549.6,559.6,545.3,554.3,541.4,548.5z M572.8,566.3c9.9,12.1,17.8,25.6,27.8,37.6
			c0.7,1.1,1.4,2.2,2,3.4l-6.1,1c-1.7-2.4-3.3-4.6-4.8-6.9c-8.3-12.7-16.5-25.5-24.7-38.2c-2-3.1-3.6-6.5-7.4-7.9
			c-1-0.3-1.7-1.5-2.4-2.4c-3.9-5.1-7.8-10.2-11.6-15.4c-0.5-1-0.9-2.1-1.2-3.2l8.8,2.1l4.1,6.3C562.4,550.6,566.9,559,572.8,566.3z
			 M559.1,538.6c4.3-0.8,5.2,1.7,6.8,3.8c6.8,9.2,13.1,18.8,20.5,27.5c8.3,9.8,15.9,20.1,23.8,30.2c1.2,1.5,2.3,3.3,3.9,5.7
			l-6.3,1.2c-1.5-1.7-2.7-3-3.8-4.5c-7.8-10.8-15.2-21.9-23.4-32.3c-6.7-8.5-12.9-17.3-18.6-26.4
			C561.1,542.3,560.3,540.7,559.1,538.6z M581.3,631.1c-0.2-1.9,0-3-0.4-3.8c-1.8-3.9-3.9-7.7-5.9-11.6c2.3-2,5.5-2.8,8.5-2.1
			c2.9,5.1,5.9,10.5,11.6,14.9c0.3-6.8-5.1-9.9-6.3-15.4l4.3-1.4c5.6,4.6,7.3,11.7,14.1,16c-1.1-6.5-6-10-7.7-15.1
			c1.3-2.1,3.3-2.2,5.9-1.9c4.9,4.4,8,11.2,14.7,14.8c-0.2-1-0.6-1.9-1-2.7c-2.8-3.9-5.7-7.7-9-12.1l6-1.8c2.6,7.8,9.4,12,13.9,18.4
			c-3.2,1.8-7,2.4-10.6,1.8l-12.1-10.4c0.4,5.1,5.4,6.9,7.3,11.4c-6.8,1.9-13.5,1.9-20.2,3.5c-6.7,1.5-13.6,2.2-20.2,3.2
			c-4-3.5-9.6-12.8-12.1-19.9c0.5-0.5,1.1-0.8,1.7-1c1.8-0.4,3.6-0.6,5.5-0.9C574.2,619.4,575.3,626.4,581.3,631.1z M680.7,670.6
			c-4.1,1.9-5.1,2-13.3,1.9c-5.3-3.5-7.3-5.4-10.4-9.9c0.9-0.3,1.7-0.6,2.6-0.7h10.7L680.7,670.6z M676.6,663.2l3.6-3.3
			c6,2.3,10.2,7,15.8,11.4c-3.4,1.1-6,0.7-9.3,0.5L676.6,663.2z M630.6,660.8c-0.8,0.5-1.7,1-2.7,1.3c-5,0.8-9.9,1.4-15.3,2.2
			L602,655l0.5-1.6l17.4-2.6C624.1,653.4,627.7,656.8,630.6,660.8z M608.7,635.8c3.5-1.8,6.6-1.7,9.8-2.3c4.7,3.3,8.9,7.3,12.4,11.9
			l-10.4,1.5L608.7,635.8z M624.4,650.7c3.3-1.8,7.2-2.5,11-2l11.7,10.4l-11.6,1.8L624.4,650.7z M651.4,663.1l9.9,8.7l-0.5,1.4H649
			c-3.6-2.5-6.8-5.5-9.5-8.9C643.4,663.1,647.4,662.7,651.4,663.1z M651.1,658.5l-11.2-10.1c3.9-2.6,7.6-2.1,11.5-2.8l13.7,11.5
			C660.1,659,655.9,658.4,651.1,658.5z M635.8,644.6l-11.9-10.9c3.7-2.4,7.2-2.3,11.3-2.3l12.5,11L635.8,644.6z M595.1,637.4
			c3.3-0.7,6.7-0.9,10-1.3c3.3,3.2,6.4,5.9,9.3,8.8c0.6,0.7,1.2,1.5,1.7,2.4c-6.1,2.4-12.3,2.5-18.8,3.6l-12.8-10.7
			C587.8,637.2,591.8,638.1,595.1,637.4z M597.4,654.6l10.5,9.3c-3,2.4-6,1.8-8.5,2.2c-5-3.1-6.4-4.5-9.8-9.7
			C591.6,654.8,593.9,654.3,597.4,654.6z M612.3,668.1c3,2.2,5.8,4.8,8.3,7.6c-3.6,0.8-7.3,1.2-11,1.2c-2.9-1.8-5.4-4.1-7.3-6.8
			C605.7,667.8,608.9,668.1,612.3,668.1z M623.6,679c2.7,1.2,4.7,2.5,6,5.6l-11.4,1.2l-5.2-4.7C616.8,678.7,620.5,679.7,623.6,679z
			 M626.8,675.9c-4.3-1.8-6.9-4.9-10.5-8.5c7.2-1.1,13-3,20.1-2.1l9.3,8.6C638.6,675.7,632.4,674.4,626.8,675.9z M648.7,677l6.9,5.7
			c-0.2,0.5-0.5,1-0.7,1.5l-19.4-0.1c-2.4-1-4.4-2.9-5.4-5.3L648.7,677z M658,687.6c1.5,0.2,2.9,0.7,4.3,1.2
			c-0.1,0.6-0.1,1.1-0.2,1.6c-6.1,1.1-12.4,1.4-18.7,0.8c-1.1-0.1-2.1-1.3-3.4-2.2C643.7,687.6,650.9,687,658,687.6z M660.8,684.1
			l-6.9-5.8c4.5-2.2,8.4-1.8,12.7-1.6l8.1,6.7C669.5,684.7,665.4,684.1,660.8,684.1z M680.9,689.2c-7.5,2.2-11.9,1.8-14.8-1.4
			C671.1,687.6,675.9,686.1,680.9,689.2z M671.8,676.1c2.5-1.2,5-0.6,7.3-0.7s4.6,0,7,0c3.3,2.6,6.4,4.4,8.7,7.5
			C683.9,686.3,678.5,684.7,671.8,676.1z M702.1,689.4c-5.4,0.7-11,1.7-17.1-0.5C690.5,686.3,696.8,686.5,702.1,689.4z M699.2,669.7
			c-15.2-10.8-28.8-22-31.6-26.1c3.2-1.6,5.1,0.5,7.2,2.2c7.8,6.8,15.7,13.5,23.5,20.2c2,1.5,3.6,3.5,4.8,5.7
			C701.7,671.1,700.4,670.5,699.2,669.7z M678.6,658.3h-7c-5.4-3.7-10.3-8.1-14.8-12.9l3.6-1.8C666.7,648.2,673.2,652.5,678.6,658.3
			z M664.1,640.4c-4.2-3.7-7.4-8.2-9.7-13.2l12.5,11.3L664.1,640.4z M645.4,626c-3.1-3.9-6.3-7.9-7.8-12.8c4.4,3.5,7.3,7.9,10.4,13
			C646.6,626.1,645.7,626.3,645.4,626z M528.5,561.2c-2.1-3.8-4-7.8-8.3-9.8c-0.7-0.5-1.4-1.2-1.8-2c-6.1-8.9-12.2-17.8-18.3-26.7
			c-0.4-0.9-0.7-1.8-0.9-2.7c2.8,0.1,3.2,2.1,4.3,3.4c8.3,10.3,16.5,20.8,25,31.1c1.8,2.3,3.6,4.7,7.8,5.9c-0.5-1.4-1.2-2.8-2-4.1
			c-7.9-9.8-15.9-19.6-23.9-29.4c-1-1.3-1.9-2.7-2.7-4.2c7.6,1.6,13.7,3.4,17.6,9.7c2.7,4.3,5.9,8.3,8.8,12.4c1.1,1.4,2.1,3,2.8,4.7
			c7.8,19,17.8,36.8,27.5,54.8c1.3,2.4,3.1,4.6,3.3,7.6c-2.8,1.3-5.5,1.1-8.8,0.7c-1.2-1.8-2.5-3.7-3.6-5.6
			C546.4,591.7,537.5,576.4,528.5,561.2z M542.1,619.3c5.1-2.1,9.8-1.8,14.9-2.3c4.7,6,8.5,12.7,13.3,19.3
			c-5.3,3.6-11.1,2.1-16.5,4.5C549.4,633.9,545.5,626.7,542.1,619.3z M554.4,648.8c-2.9-1-4.1-2.4-5.2-5.1
			C552.7,644.4,553.1,646.5,554.4,648.8z M538.6,659.3c-3-4.1-5.4-8.7-7.1-13.5c5.1-1.7,9.9-0.6,14.8-1.3l11.3,12.7
			C551,659.4,545.1,660.9,538.6,659.3z M555.5,643.7c8-2.8,16.3-2.3,24.7-4.4l12.5,11.3c-3,2-3,2-7.7,1.8l-7.9-7.8l-1,0.7
			c1.7,2.5,3.5,5,5.9,8.3l-19.2,3.5C559.3,653,557.4,648.7,555.5,643.7z M564.1,660c7.1-2.5,13.7-2.5,20.2-3.7
			c3.9,2.8,7.4,6.3,10.1,10.3c-5.8,2.7-11.9,2.4-18.5,4.4L564.1,660z M584.7,679l-6.1-5.7c6.7-2.7,13-2.4,19.8-3.7l6.5,6.8
			C600.9,678,590.1,679.4,584.7,679z M589,682.3c5.9-1.6,12-2.2,18.1-1.9c2.4,0.1,4.1,1.7,5.4,5.4c-6.7,0-12.6,0.1-18.3,0.1
			C592.2,685.9,592.2,685.7,589,682.3z M612.5,693.3c-3.2,0.1-6.3,0.5-8.8,2.6c-4.7-2.9-4.7-2.9-7.4-6.7c3.9-1.8,7.2-2,19.3-1.1l4,4
			C617,693.8,614.7,693.3,612.5,693.3z M621.3,689c5.8-0.8,11.4-3.4,16.6,2c-5.1,0.9-9.5,1.5-13.9,0.5
			C623,691.3,622.2,689.9,621.3,689z M634.9,701.5c-2.8-0.7-4.7-2.7-6.9-6.3l14.5,0.1c3.1,1.6,5.8,4,7.9,6.8
			C645.3,702.8,640,702.6,634.9,701.5z M699.5,702.4c0.1,0.6,0.3,1.3,0.5,2.3c-6.1,1.3-11.8-1.3-17-1l-6.9-4.1l2,3.5
			c-4,1.2-7.5,0-11.4-0.3c-3.8-0.2-7.7-0.5-11.3-0.7c-3.1-1.7-5-4.1-8.2-7c3.7-0.8,7.4-1.1,11.2-1c3.1-0.1,6.3,0,9.1,0l7.3,4.4
			l-1.9-4c7.4-0.9,14.3-2,20.1,3.7c1.4,1.4,3.4,2.1,5.2,3.1l-5.4-6.3c7.2-2.8,15.6-1.8,21.3,2.7c0,0.8,0,1.9,0.1,3.3
			c1.4,1.4,3,2.9,5.4,5.1C711.9,707,705.5,706,699.5,702.4z M725.8,704.1l5.7,2.7C728.4,707.8,727,706.2,725.8,704.1z M737,701.9
			c-0.8,0.1-1.4,0.2-2,0.2c-1.7-0.1-3.4,0.1-5,0.7l-7.4-3.3l2.9,4.3c-4.8-1.4-7.5-5.2-11.5-9c7-1.6,12.9-1.3,18.5,2.3l-0.2,0.1
			c2.7-0.2,2.7-0.2,5.1,2L737,701.9z M732,689.5l0.5-0.2v0.4L732,689.5z M738.4,695.2c2.8-0.1,5.6,0.6,8.2,1.9
			c10.3,4.8,20.7,9.7,31,14.5c0.6,0.4,1.1,0.9,1.6,1.4C767,713.1,746.9,704.5,738.4,695.2z M807.5,730.1l6.2,2.7
			C811.3,733,809,732,807.5,730.1z M814.1,732.9c3.2-0.3,5.9,1,8.4,2.9C819.3,736.3,816.2,735.2,814.1,732.9z M814,744.2
			c2-3.6,5.7-3.6,9.2-3.5C820.9,743.4,817.4,744.8,814,744.2z M828.6,739.3c-0.1-0.3-0.3-0.5-0.4-0.8l1.6-1l0.6,1.1L828.6,739.3z
			 M834.5,736.6c1.6-2.2,3.6-2.1,5.3-2.3C838.6,736,837,736.7,834.5,736.6z M824.7,733.2c-10.3-3.9-20.5-7.7-30.8-11.6
			c-1-0.5-1.9-1-2.8-1.6l0.3-1l49.1,10.9C834.7,733.1,830.3,735.4,824.7,733.2z M781.5,698.8c-37-15-69.8-36.8-99.4-63.6
			c-30.9-28-56.5-60.4-78.4-95.7c-29.2-47.4-51.8-98.7-66.9-152.3c-9.9-35.2-17-71.2-21-107.5c-2-17.4-3.2-34.8-3.9-52.2
			c-0.2-2.9,0.1-5.8,1-8.6c0.9,1.7,2,3.3,2.8,5c5.1,11.6,12.3,22.2,21.1,31.3c2.5,2.5,5.3,4.7,7.9,7c-0.4-0.9-0.8-1.8-1.3-2.5
			c-9.9-11.1-16.3-24.4-22-38c-3.1-7.6-5.8-15.4-8-23.4c-2.1-7.3-0.6-14.5,1.2-21.8c7.4-29.5,25.3-51.6,48.7-69.9
			c23.2-18.1,48.8-31.8,76-42.8c37.1-14.9,75.8-25.6,115.4-31.9c29.3-4.7,58.7-8.2,88.4-9.2c17-0.6,34-1.2,51-1
			c32.9,0.4,65.7,3,98.2,7.7c31.7,4.6,63,10.9,93.6,20.2c31.8,9.6,62.4,22.1,90.6,39.9c15.2,9.6,29.7,20.2,41.9,33.5
			c11.6,12.7,21,26.8,25.8,43.5c1.3,4.6,1.9,9.4,2.9,14.1c0.7,3.1,1.5,6.2,1.9,9.4c0.9,5.7,1.6,11.4,2,17.1
			c0.9,23.9,0.8,47.8-1.6,71.6c-2.7,26.6-6.8,52.9-12.4,79c-9.2,43.5-21.9,86.1-38,127.4c-12.9,33.2-28.3,65.4-46.1,96.3
			c-0.7,1.1-1.4,2.3-2.3,3.7c-1.9,0.9-3.9,1.8-6,2.8c-6.9,3.3-13.9,6.3-20.4,10.1c-30.5,17.8-61,35.8-91.3,54.1
			c-8.4,5.1-16.3,11.1-24.4,16.8c-5.1,3.6-10.3,7.1-15.1,10.9c-7.8,6.1-15.4,12.5-23,18.8c-5.5,4.5-10.8,9.3-15,13
			c-8.7,1.5-15.9,2.6-23.2,3.9C880.4,724.7,830.1,718.5,781.5,698.8z M929.9,729.4l-0.5,1l-1-0.5c0.3-0.2,0.6-0.5,0.9-0.7
			C929.4,729.1,929.7,729.3,929.9,729.4z M915.7,735.9c-1.1,1-2.2,1.9-3.3,2.9c-11.4,8.1-22.8,16.1-34.3,24
			c-1.8,1.2-3.3,3.3-6.3,2.7c0.2-0.6,0.2-1.3,0.6-1.6c12.9-9.4,25.7-19.1,39.9-26.6C913.4,736.8,914.6,736.3,915.7,735.9z
			 M863.2,732.6c-5.2,4.1-10.8,5.5-16.2,7.3c-1.7,0.6-4,0.9-5.5-1.2C848.2,733.8,856,731.5,863.2,732.6z M844.8,732.8l2-1.8
			c0.2,0.3,0.4,0.6,0.6,0.9L844.8,732.8z M825.9,751.1c7-2.7,13.5-5.4,20.1-7.6c1.9-0.6,3.7-1.5,5.6-2.2c6.6-2.6,13.2-5.4,19.8-7.8
			c1.7-0.6,3.6-0.4,6.5-0.7c-1.4,1.4-1.8,2.1-2.5,2.4c-7,2.9-14.1,5.5-21,8.5c-6.3,2.7-12.3,5.9-18.5,8.8
			C831.9,754.4,831.4,754.2,825.9,751.1z M856,761.3l-19.8-6c1.4-1,2.9-1.8,4.4-2.6c6.2-2.4,12.5-4.5,18.6-7.1
			c7.4-3.1,14.6-6.6,21.9-9.9c6.2-2.7,12.8-3.4,19.8-2.7c-1.4,0.9-2.8,1.7-4.3,2.4c-13.1,5.1-26.1,10-39.2,15.1
			c-1.9,0.9-3.8,1.9-5.7,2.9c2.8-0.4,5.5-1,8.4-1.8c14.4-5.4,28.7-10.9,43.1-16.4c1.4-0.6,2.8-1.2,5.2-2.1
			C903.4,737.5,865.9,757.6,856,761.3z M870.9,760.5c-1.1,1.1-2.3,2.1-3.6,3c-0.6,0.3-1.2,0.5-1.9,0.6
			C866.3,761.7,866.3,761.7,870.9,760.5z M979.4,746.7c-7.6,8.4-15.4,16.5-22.9,24.9c-10.1,11.3-19.8,22.9-30,34.1
			c-6.5,6.9-14.1,12.6-22.5,17c-3.3,1.6-6.8,2.9-10.4,3.6c-7.9,1.8-16,1.7-24,1.2c-0.8-0.1-1.6-0.4-2.4-0.7l0.2-1
			c2.5-0.5,4.9-1.1,7.3-1.4c20-2.6,36.6-11.7,50.1-26.4c5-5.4,9.7-11.1,14.4-16.7c10.8-12.8,21.5-25.7,32.4-38.5
			c12.3-14.4,25.9-27.4,39.9-40c18.7-17,38.3-33,58.9-47.7c11.1-7.8,23.2-14.1,35.5-20.1c-1,0.8-2.1,1.7-3.2,2.4
			c-10,6.6-20.2,12.8-29.8,19.9c-8.7,6.4-16.6,13.8-24.9,20.7c-13.4,11.2-26.6,22.7-38.5,35.5C999.3,724.4,989.5,735.7,979.4,746.7z
			 M1111.8,648.9c-3.7,3.3-7.3,6.6-11.1,9.8c-4,3.4-8.2,6.6-13.6,8.1c0.7-1,1.5-1.9,2.4-2.7c4.4-3.7,8.8-7.4,13.4-10.8
			C1105.5,651.2,1108.2,649,1111.8,648.9z M1077.1,676c1-0.4,2.1-0.7,3.2-0.8c-6.9,6.8-14.2,13.3-22.8,18.1
			C1063.2,686.7,1069.8,680.9,1077.1,676z M1054.2,689.9c1.5-2.8,3.4-5,6.8-5.2L1054.2,689.9z M1066.8,677.6
			c3.4-4.6,8-8.3,13.3-10.7C1076.8,671.7,1072.2,675.4,1066.8,677.6z M1052.7,691.4l-2.8,2.8l-1.4,1.3l1.4-1.3L1052.7,691.4
			L1052.7,691.4z M1012.3,729.8c0,1-0.2,2.3-0.3,3.8c-4.5,6.7-10,12.1-18.3,14c2.8-3.2,5.5-6.6,8.4-9.7c8.1-8.8,16.2-17.5,24.4-26.2
			c1.5-1.6,3.3-3,5.7-5.2C1027.2,715.7,1019.1,725.1,1012.3,729.8z M1033.1,732.4c-6.3,7-11.5,13.6-17.8,19.1c-4,3.5-9.5,5.1-15,7.9
			C1006.1,746.6,1018.5,736.4,1033.1,732.4z M998.5,751.1c-4.7,5.2-7.4,12.2-14.8,15.1c0.5-0.7,1-1.4,1.5-2
			c4.1-4.7,8.2-9.5,12.2-14.2L998.5,751.1z M981.4,761.4c2.3-5,6.7-8.3,10.5-11.9C990,754.8,985.5,758,981.4,761.4z M1001.5,777.3
			c-0.1,1.5-1.2,2.5-2.6,2.5v-0.3c0.1-1.3,1.3-2.4,2.6-2.4V777.3z M981.2,781c7-10.6,14.3-18.7,26.2-21
			C1003.8,770.1,997.3,775.5,981.2,781z M1007.2,769.5c3.4-6.1,8-11.4,13.5-15.7C1017.2,759.8,1012.6,765.1,1007.2,769.5z
			 M1026.8,746.4l10.3-11.7C1035,739.5,1031.5,743.7,1026.8,746.4z M1022.3,732.4c4.1-5.8,8-9.8,13.3-12.4c4.9-2.4,9.9-4.8,15-7.3
			C1047.1,720,1037.5,726.8,1022.3,732.4z M1041.7,713.5c0.7-1.1,1.4-2.1,2.3-3.1c5.9-5,11.7-10.4,18-14.8c6-4.1,12.6-7.3,19.9-11.4
			C1076.4,693.9,1056.2,708.2,1041.7,713.5z M1081.3,681.7c-1.2,0.5-2.5,1-3.6,1.4c0.2-0.6,0.5-1.2,0.8-1.6
			c8.7-7.6,17-15.5,27.4-20.8c6-3,11.9-5.9,17.9-8.8C1110.2,662.7,1097.6,674.8,1081.3,681.7z M1116,651.5L1116,651.5
			c2-1.7,3.7-3.4,5.7-4.9c3.1-2.3,6.3-4.4,9.5-6.5c0.9-0.3,1.9-0.6,2.9-0.7C1127.7,646.2,1122,649.9,1116,651.5z M1127.4,636.2
			c5.5-4.8,11.9-8.4,18.7-10.6C1140.6,630.5,1134.7,634.5,1127.4,636.2z M1137,652.9c0.9-4.8,3.6-4.4,6.4-4.2L1137,652.9z
			 M1143.8,644.2l-0.5-0.9l3.6-2.1l0.5,1L1143.8,644.2z M1209.4,606.6c-14.6,6.8-29.1,13.6-43.6,20.3c-2.1,0.8-4.3,1.5-6.5,2.1
			c19-11.9,41.4-22.2,51.8-23.7C1210.6,605.8,1210,606.2,1209.4,606.6z M1163,619.9c5.2-4.7,11.6-7.9,18.5-9.1
			C1178.3,614.1,1169.9,618.2,1163,619.9z M1357.8,465.1c-2.5,22.7-12.1,42.3-27.1,59.2c-6,6.7-12.6,12.8-19.6,18.4
			c-11.1,8.9-22.6,17.4-34.1,25.7c-13.9,10-29.7,16.6-45.7,22.3c-8.1,2.9-16.9,3.9-25.5,5.5c-9.5,1.7-19.1,2.8-28.6,4.7
			c-6,1.3-12,3-17.8,5.1c-9.8,3.3-19.5,6.8-29.2,10.4c-5.6,1.9-11.1,4.3-16.4,7c-16.8,9.1-33.8,17.9-49,29.4
			c-14.7,11.1-28.7,23-42.8,34.8c-8.1,6.7-15.9,13.9-23.8,20.9c-12.4,10.9-23.4,23.3-34.3,35.8c-13.8,16-27.4,32.1-41.2,48.2
			c-12.3,14.4-27.8,23.2-46.7,25.4c-8.2,1-16.5,1.5-24.7,1.8c-3.9,0-7.8-0.3-11.6-1c-6.2-0.8-12.3-1.9-18.4-3
			c-2.5-0.5-5-0.9-6.7-4.1l7.2-11.8c2.7-0.9,6.2-2.1,9.7-3.1c22.7-6.3,44-16.1,64.7-27.1c6.1-3.2,11.9-6.9,17.5-11
			c16.9-12.4,33.7-24.8,50.2-37.7c9.4-7.3,18-15.7,27-23.5c2.4-2.1,4.9-4.1,7.5-6c22.7-16.5,45.4-32.8,69.8-46.8
			c22.5-13,44.7-26.4,67.2-39.3c7.8-4.5,16-8.2,23.9-12.4c4-2.2,7.8-4.6,11.6-6.8l-0.1-6.3c0.3-1,0.7-1.8,1.2-2.7
			c12.9-22.5,24.2-46,33.8-70.1c2.2-5.8,5.5-11.1,9.8-15.6c9-9.2,18.1-18.4,27-27.6c11.6-11.9,25.4-20.5,40.4-27.2
			c5.2-2.3,10.9-3.6,16.4-5.2c2.3-0.7,4.9-0.8,7.4-3.6c-1.9-0.3-3.9-0.5-5.8-0.5c-9.5,0.6-18.7,3.2-27,7.7
			c-15,7.8-28.7,17.3-40.3,29.7c-4.1,4.3-8.2,8.7-12.3,13c-1.1,1.2-2.3,2.1-4.5,4.1c0.3-2.2,0.1-3.4,0.6-4.1
			c1.6-2.6,3.4-4.9,5.4-7.1c6.7-6.7,13.1-13.6,20.4-19.6c14.8-12.3,30.5-23.1,49.6-27.6c11.4-2.9,23.4-3,34.8-0.2
			c8.8,2.2,16.7,7.1,22.4,14.1C1356.8,445.3,1358.9,454.9,1357.8,465.1z"/>
		<polygon class="st0" points="1061,684.7 1061.2,684.4 1061.1,684.6 		"/>
		<path class="st0" d="M844.4,774.6C844.6,774.6,844.6,774.7,844.4,774.6L844.4,774.6z"/>
		<polygon class="st0" points="903.7,749.4 903.9,749.3 903.7,749.4 903.5,749.7 		"/>
		<polygon class="st0" points="920.2,733 920.2,733 920.4,732.9 		"/>
		<polygon class="st0" points="1065,706.6 1065.2,706.5 1065,706.6 1064.8,706.9 		"/>
		<path id="Path_345" class="st1" d="M1193.4,128.8c-5-5-9.8-10.2-15.1-15c-4.1-3.7-8.7-6.8-13-10.3c-1.4-1.1-3.2-2-2.8-4.7
			c0.8-0.3,1.6-0.4,2.4-0.4c1.5,0.4,3,1.1,4.4,1.9c18.8,11.6,35.2,25.9,46.9,44.9c16.9,27.4,17.6,55.5,2.2,83.8
			c-9.6,17.7-23.7,31.4-39.4,43.5c-15,11.5-31.4,20.8-48.5,28.9c-37.9,17.9-77.7,29.3-118.8,36.9c-28.3,5.2-56.8,8.6-85.5,10.3
			c-27.5,1.5-55.2,1.5-82.7,0c-23.2-1.2-46.3-3.6-69.2-7c-47.1-6.9-92.8-18.8-136-39.1c-21.1-9.9-41-21.8-58.6-37.2
			c-13.6-11.9-24.8-25.8-31.9-42.7c-8.3-19.9-8.3-39.8-0.3-59.7c4.6-11.3,11.2-21.7,19.4-30.7c13.4-14.6,28.9-27.1,46-37.1
			c14.3-8.3,29.2-15.5,44.6-21.6c4.1-1.6,4.1-1.6,7.7-0.4c0.1,2.8-2.2,3.1-4,3.9c-10.7,5.3-21.6,10.3-32.1,16
			c-17.4,9.5-33.8,20.5-47.9,34.6c-2.1,2.1-4.1,4.3-5.8,6c0.5,3.1,1.1,5.5,1.3,7.9c1,13.5,1.9,27,2.9,40.5c0.2,0.8,0.5,1.5,0.9,2.2
			c3.4-2.6,4.8-5.5,4.4-9.5c-0.9-9.6-1.6-19.2-2.3-28.8c-0.2-2.6-0.5-5.4,2.1-8.3c2.1,6.6,0.8,12.8,1.2,18.8s0.1,11.9,1.4,18.4
			c4.4-2.7,6.5-6.6,10-9.6v-38.9l1.2-0.1c0.4,1.1,0.7,2.3,0.8,3.5c-0.1,6.9-0.3,13.8-0.5,20.7c-0.1,3-0.1,6,0,8.9
			c0,0.6,0.5,1.2,1,2.3c1.2-0.5,2.4-1.1,3.4-1.8c26.7-23.8,57.9-39.7,91.2-51.7c37.6-13.6,76.4-21.8,116-26.7
			c21-2.6,42.1-4.2,63.2-4.6c16.1-0.3,32.2,0.3,48.2,1.3c37.4,2.2,74.5,8,110.8,17.3c37.1,9.7,72.8,22.7,105.6,43.1
			c4.3,2.7,8.5,5.6,12.7,8.3c1.3,0.8,2.7,1.5,4.3,2.4c5.8-9.5,7.8-20.5,15.2-28.7c0.2-0.2,0.8,0,1.8,0c-1.7,5.5-5,10.2-7.3,15.3
			s-4.7,9.9-7,14.6c3.8,5.2,12.6,12.4,16.9,14.2l-0.1-0.1c3.1,6.3,7.5,11.3,14.1,14.1l-0.1-0.1c-0.2,0.6-0.7,1.5-0.5,1.9
			c2.3,4.1,5.1,8,8.3,11.4c1-1.6,2-3.3,2.8-5c2.8-7,5.5-14.1,8.4-21.1c0.6-1.1,1.4-2.1,2.3-3c0.4,1,0.8,1.5,0.8,1.8
			c-2,11.2-8,20.8-12.2,30.9c0.9,3.4,3.6,4.3,6.3,6.2c1.4-2.8,3-5.3,4.1-8c1.8-4.4,3.4-9,5-13.5c0.9-2.6,2.3-4.5,5.2-4.8
			c-3.6,11-6.6,22.3-15,31.5l3.1,4.8c4.6-10.5,8.7-20.1,13.2-30.4c-0.4-1.5-0.9-3.6-1.4-5.8c-0.1-1.6-0.3-3.2-0.6-4.7
			c-4.2-15.3-12.3-28.5-23-40.2c-0.9-0.8-1.8-1.4-2.8-1.9L1193.4,128.8z M570.3,240.5c1.9,2.4,3.6,4.8,5.7,7
			c9.4,10.1,20,19.1,31.4,26.8c21.5,14.2,44.8,25.6,69.2,33.8c48.8,16.7,99.5,26.9,151,30.4c39.4,2.9,79.1,2.5,118.5-1
			c36.7-3.3,73-9.1,108.6-18.8c22.7-6.1,45-13.2,66.4-23c10.1-4.6,19.5-10.3,29.2-15.5c12.2-6.5,23.5-14.4,33.8-23.6
			c5.6-5,10.7-10.7,15.9-16.2c1.7-1.8,3.4-3.8,2.5-6.6l-2.9-1.6l1.7-4.2c-2.2-5.6-5.8-10.5-10.5-14.2c-1.6-1.3-3.1-2.7-4.4-4.3
			c-0.4-0.5-0.1-1.5-0.2-3.3c4.8,2.7,6.2,7.7,11.3,10.4c-0.9-3.2-2.2-6.2-4-9c-4.7-7-9.3-14.3-14.6-20.9
			c-14.3-17.8-32.5-31.1-52-42.7c-30.4-18.1-63.2-30.8-97.4-39.7c-36.9-9.6-74.8-15.4-112.9-17.3c-40.5-2.1-80.9-1-121,4.7
			c-33.8,4.7-66.8,12.5-98.8,24.6c-26.2,9.9-51,22.2-73.4,39.1c-16.3,12.3-30.5,26.5-40.7,44.4C575.3,212.2,571.1,226.1,570.3,240.5
			L570.3,240.5z M563.9,215.4c3.1-2.6,2.2-5.4,1.8-7.9c-1-6.6-2.7-13-3.6-19.6c-1-8-1.5-16-2.2-24c0.1-1.2,0.3-2.4,0.7-3.6
			c1.3,1,2.1,2.5,2.3,4.2c0.7,6.9,1.1,13.7,1.8,20.5c0.5,5.5,1.2,10.9,2,16.4c0.2,1.3,1.2,2.5,2,4.4c2.6-3.7,3.4-6.9,2.4-10.5
			c-3.3-12.4-5.8-25-7.3-37.8c-0.2-1.4-1.1-2.7-2.1-5.3c-1.7,3.3-2.9,5.5-4,7.7c-2.8,5.1-3.6,11-2.2,16.6c2.1,8.5,3.6,17,5.5,25.6
			C562.1,206.6,563,211,563.9,215.4L563.9,215.4z M566.5,145.8c-0.4,7.2,4.8,42.4,7.1,49.5c2.5-1.6,3.5-4.2,5-7.2
			c-0.5-2.9-1.2-6.2-1.8-9.6c-0.6-3.3-1.1-6.8-1.5-10.2c-0.4-3.2-0.4-6.4-0.6-9.6c-0.3-3.4-0.7-6.8-1-10.2s0.3-6.7-0.6-10.5
			C569.7,140.2,568.3,143,566.5,145.8L566.5,145.8z M1220.3,194.1c-4.8,7-7.1,15.2-11.4,22c0.2,2.5,0.4,4.6,3,5.9
			C1217.5,213.4,1219.7,204,1220.3,194.1L1220.3,194.1z M562.1,224.3c1.3-3.4,0.4-6.3-1.3-9.9c-0.2,0.9-0.3,1.8-0.3,2.7
			C560.9,219.6,561.5,221.9,562.1,224.3z"/>
		<path id="Path_346" class="st2" d="M740.9,658.4c-3.1-1.3-6.2-2.7-9.2-4.3c-9.4-5.8-18.2-12.5-26.3-20.1
			c-9.8-9.3-19.5-18.8-29.1-28.4c-12.8-12.9-23.7-27.5-33.5-42.8c-4.1-6.3-7.3-13.3-10.7-20c-0.7-1.6-1-3.4-0.8-5.2
			c3.7,2.3,5.9,5.8,8.2,9.1c4.6,6.6,9.1,13.3,13.7,19.8c10.4,14.9,22.2,28.8,35.1,41.6c11.5,11.6,23.1,23,34.9,34.3
			c4.6,4.4,9.7,8.4,14.6,12.6C738.9,656.1,739.9,657.2,740.9,658.4L740.9,658.4z"/>
		<path id="Path_347" class="st2" d="M1048.6,621.2c1.2-1.1,2.2-2.3,3.5-3.2c7.4-5.8,14.8-11.7,22.4-17.3
			c21.1-15.7,37.5-35.8,52.6-57c7.1-9.9,13.1-20.5,18.1-31.6c4.2-9.2,8.9-18.1,13.1-27.4c3.4-7.5,6.3-15.3,9.4-22.9
			c0.8-2,0.8-4.6,3.6-5.7c1.9,1.2,1.6,3.2,1.1,4.8c-1.3,5.3-2.9,10.6-4.8,15.7c-2.8,6.8-6,13.4-9.7,19.8
			c-8.8,15.3-17.9,30.5-27,45.7c-1.8,3-3.7,5.8-5.7,8.6c-6.4,8.5-12.9,16.7-19.2,25.2c-10.2,13.7-23.5,23.8-37.2,33.6
			c-4.5,3.2-9.2,6-13.9,8.9c-2,1.1-4.1,2-6.2,2.8H1048.6z"/>
		<path id="Path_348" class="st2" d="M817.2,375.4c-26.8,1.5-123.3-20.4-135.6-30c3.9-0.7,7.1,0.8,10.3,1.6
			c10.4,2.8,20.7,6.1,31.2,8.5c17.9,4.1,35.8,7.9,53.8,11.6C790.2,370.1,803.7,372.7,817.2,375.4z"/>
		<path id="Path_349" class="st2" d="M614.9,507.1c-0.8-1.2-1.5-2.5-2.1-3.8c-1.6-4.3-3-8.7-4.7-12.9c-2.9-7.3-5.3-14.8-9-21.6
			c-9.2-17-15.7-35.3-19.3-54.3c-0.8-4-1.8-8-2.7-12.1c-0.1-1.6-0.1-3.2,0-4.7c1.8,2.2,3,3.1,3.4,4.4c2,5.9,4,11.8,5.4,17.8
			c3.7,14.7,8.7,29,14.8,42.9c5.6,13.1,9.7,26.8,14.3,40.2c0.4,1.2,0.6,2.5,0.9,3.8L614.9,507.1z"/>
		<path id="Path_350" class="st2" d="M891.7,690.4c-32.9,5.6-64.2-1.8-95.1-11.9c-4.8-1.6-10.2-1.9-14.9-6.5
			c1.8-0.4,2.9-0.9,3.8-0.7c9.3,2.3,18.8,4.3,28,7.1c14.2,4.4,28.8,7.6,43.6,9.7c7.5,1.1,15,1.5,22.6,2
			C883.6,690.4,887.7,690.4,891.7,690.4z"/>
		<path id="Path_351" class="st2" d="M779.4,381.3c-9.7-1.4-19.5-2.5-29.1-4.4c-19.3-3.8-38.6-7.9-57.8-12.3
			c-8.2-1.9-16.2-4.8-24.3-7.5c-2-0.6-3.8-1.8-5.1-3.5c1-0.1,2,0,2.9,0.2c25.8,9.2,52.7,13.7,79.4,19.3c10.7,2.3,21.5,4.6,32.2,7
			C778.2,380.2,778.7,380.9,779.4,381.3L779.4,381.3z"/>
		<path id="Path_352" class="st2" d="M1164.5,313.8c1.1-1.1,2.3-2.1,3.6-3.1c19.8-12,37.9-26.8,53.5-43.9
			c4.8-5.2,8.6-11.3,12.8-16.9c0.8-1.5,2-2.7,3.4-3.6c-0.1,1-0.3,1.9-0.6,2.8c-2.2,5.5-5.4,10.7-9.4,15.1
			c-15.6,18.1-34.1,33.5-54.7,45.6C1170.3,311.3,1167.4,312.6,1164.5,313.8L1164.5,313.8z"/>
		<path id="Path_353" class="st2" d="M773.9,396.5c-7.5-1-15-1.6-22.4-3c-15.3-2.9-30.5-6-45.7-9.4c-3.4-0.7-7.1-1.4-10.8-4.6
			c1.4-0.1,2.7-0.1,4.1,0c19.2,4.1,38.5,8.2,57.7,12.3c4.9,1.1,9.8,2.1,14.7,3.3c0.8,0.3,1.6,0.8,2.2,1.4L773.9,396.5z"/>
		<path id="Path_354" class="st2" d="M773.5,416.9c-0.8,0.1-1.6,0.1-2.4,0.1l-71.3-15.4c-0.8-0.3-1.5-0.8-2.1-1.3
			c0.2-0.5,0.3-0.7,0.4-0.8c0.1-0.1,0.4-0.3,0.6-0.3c17.9,3.8,35.9,7.5,53.8,11.5c7.1,1.6,14.1,3.6,21.2,5.4L773.5,416.9z"/>
		<path id="Path_355" class="st2" d="M567.2,353.4c-4.9-11-4.6-23-6.4-35.4c-2.6-5.8-2.6-5.8,0.2-10.6c2.9,0.4,3.3,2.8,3.6,4.9
			c0.6,3.4,1.1,6.8,1.3,10.2C566.4,332.9,566.8,343.1,567.2,353.4z"/>
		<path id="Path_356" class="st2" d="M645.6,333.1c-6.4-2.5-12.9-4.6-19.1-7.6c-10.5-5.1-20.8-10.6-31.2-16c-2.4-1.4-4.7-3-6.9-4.7
			c2.4,0,3.3-0.3,3.8,0c16.7,8.6,33.4,17.2,50.1,25.9c1.1,0.7,2.2,1.5,3.1,2.4L645.6,333.1L645.6,333.1z"/>
		<path id="Path_357" class="st2" d="M712.5,422.1c6.6-1.6,45.8,5.2,57.6,10.1c-6.3-0.9-12.6-1.6-18.9-2.6c-6.5-1-13-2.3-19.5-3.5
			C725.2,424.9,718.7,424.3,712.5,422.1z"/>
		<path id="Path_358" class="st1" d="M1175.4,164.7c0.2-1.3,0.5-2.6,1-3.9c4.1-9.1,8.2-18.2,12.4-27.3c1-2.1,2-4.1,4.6-4.7l-0.1-0.1
			c0,1.3-0.3,2.7-0.7,3.9c-4.4,9.2-8.8,18.4-13.4,27.5c-0.9,1.7-2.6,3-3.9,4.5L1175.4,164.7z"/>
		<path id="Path_359" class="st2" d="M764.3,455.7c-12.5-0.2-30.7-3.6-35.2-6.6c0.6-0.4,1.1-1.1,1.5-1.1c9.7,1.7,19.3,3.4,28.9,5.3
			C761.2,453.7,762.7,454.9,764.3,455.7L764.3,455.7z"/>
		<path id="Path_360" class="st2" d="M1174.7,346.9c4.2-6.2,23.4-22.7,30.5-26.4c-3.9,6.7-9.8,9.8-14.6,14
			C1185.7,339.1,1180.3,343.3,1174.7,346.9z"/>
		<path id="Path_361" class="st2" d="M760.8,442.6c-7.6,1.1-31.2-1.5-35.8-3.6c0.6-0.4,1.1-1.1,1.5-1.1
			C738.1,438.2,749.6,439.8,760.8,442.6z"/>
		<path id="Path_362" class="st2" d="M1157.5,417.1c0.3-0.6,0.7-1.1,1.2-1.6c9.2-6.3,18.8-11.9,28.9-16.7c0.6,2.6-0.9,3.3-2.2,4
			c-6.4,3.5-12.8,7.1-19.3,10.5c-2.8,1.5-5.8,2.5-8.7,3.7L1157.5,417.1z"/>
		<path id="Path_363" class="st2" d="M733.8,463.5c7.5-0.7,19.4,2.1,25.3,5.5c-1.2,0.2-2.4,0.3-3.6,0.2c-6-1.1-12-2.4-18-3.6
			C736.6,465.4,736,464.7,733.8,463.5z"/>
		<path id="Path_364" class="st2" d="M1168.6,392.3c0.9-1.3,1.9-2.5,3.1-3.5c6.3-4.1,12.8-8.1,19.2-12.1c1-0.4,2-0.8,3.1-1
			c-0.3,1.1-0.3,1.9-0.7,2.1c-7.8,4.8-15.6,9.5-23.5,14.2c-0.4,0.1-0.9,0.2-1.3,0.2L1168.6,392.3z"/>
		<path id="Path_365" class="st2" d="M1193.3,355.8c-2.5,5.1-9.6,10.7-20.5,17C1175.1,368.5,1183.2,361.7,1193.3,355.8z"/>
		<path id="Path_366" class="st2" d="M1196.1,338.4c-3.6,5.9-11.5,13.5-20.7,20.4C1178.4,353.3,1189.4,342.3,1196.1,338.4z"/>
		<path id="Path_367" class="st2" d="M1156.2,436.4c0.9-1.3,1.9-2.5,3.2-3.5c6-3.7,12.1-7.3,18.2-10.8c1.2-0.4,2.5-0.7,3.8-0.8
			c-4,4.7-8.6,6.2-12.5,8.5c-4.1,2.4-8.5,4.4-12.8,6.5L1156.2,436.4z"/>
		<path id="Path_368" class="st1" d="M1070.1,71.4c0.2,1.1,0.7,2,0.4,2.6c-2.1,6.1-3.6,12.5-7.8,18.6
			C1062.7,85.9,1066.3,75.4,1070.1,71.4z"/>
		<path id="Path_369" class="st1" d="M1031.4,79.5c-0.5-4.9,0.2-9.8,2.1-14.4C1035.7,69.9,1034.9,75.6,1031.4,79.5L1031.4,79.5z"/>
		<path id="Path_370" class="st2" d="M758.7,483.6c-5.1-0.8-10.6-0.2-16.8-3.9C749.1,479,754.2,480,758.7,483.6z"/>
		<path id="Path_371" class="st2" d="M753.9,666.3c-0.6-4.7,0.7-8,2.6-12c0.8,1.1,1.7,1.8,1.6,2.2
			C757.4,659.7,756.9,663.1,753.9,666.3z"/>
		<path id="Path_372" class="st2" d="M917.5,684.4c3.8,2.8,3.5,6,3.3,9.6C916.4,690.8,915.9,689.6,917.5,684.4z"/>
		<path id="Path_373" class="st1" d="M1050,84.7c-1-4.9,1.1-9.1,3-14.4C1054.6,75.9,1053.8,79,1050,84.7L1050,84.7z"/>
		<path id="Path_374" class="st1" d="M1150.8,99.8l-4.8,12.3C1145.5,107.1,1146.5,103.7,1150.8,99.8z"/>
		<path id="Path_375" class="st1" d="M722.7,57.7c-3.3-1.1-5.2-3.1-5.2-7.3C721.3,51.8,721.8,55,722.7,57.7z"/>
		<path id="Path_376" class="st2" d="M944,691.7c-3.2-1.3-4.5-3.6-4.3-7.5C943.6,685.7,943.6,688.8,944,691.7z"/>
		<path id="Path_377" class="st2" d="M758.5,498.7c-2.4-0.8-5.4,0.2-7.8-2.8C754.3,495.2,756.5,496.6,758.5,498.7z"/>
		<path id="Path_378" class="st1" d="M560.6,362.6c3.7-1.5,5.9,1.5,10.1,2.4C564.7,365.6,564.2,365.4,560.6,362.6z"/>
		<path id="Path_379" class="st1" d="M1022.1,65.9c1.2,3.2-1.2,5.4-1.4,8.1C1019.1,70.2,1019.1,70.2,1022.1,65.9z"/>
		<path id="Path_380" class="st2" d="M930.3,691.4c-2.8-2-2.4-4.2-1.4-7C931.3,686.6,931.5,688.6,930.3,691.4z"/>
		<path id="Path_381" class="st2" d="M764.2,666.9c-1.5-2.4,0.4-4.2,0.7-6.9C766.6,663.7,766.6,663.7,764.2,666.9z"/>
		<path id="Path_382" class="st1" d="M564.3,381.3c-0.6-1.5-0.9-2.2-1.5-3.6l6.9,1L564.3,381.3z"/>
		<path id="Path_383" class="st1" d="M737.9,47.6c-0.2,2.7-0.3,4.2-0.4,7C735.2,51.7,735.1,50.2,737.9,47.6z"/>
		<path id="Path_384" class="st1" d="M747.7,47.1l2.4,5.3C746.8,51.1,745.9,49.8,747.7,47.1z"/>
		<path id="Path_385" class="st2" d="M779.3,381.5h7.5c-2.3,1.3-5.1,1.3-7.4-0.1L779.3,381.5z"/>
		<path id="Path_386" class="st1" d="M770.8,40.9l2.6,4.5C770.4,44.4,769.5,43.7,770.8,40.9z"/>
		<path id="Path_387" class="st2" d="M773.8,396.6h5.7C776.9,398,775.4,397.1,773.8,396.6L773.8,396.6z"/>
		<path id="Path_388" class="st1" d="M759.9,48.9l-1.9-1.5l0.6-0.9l2.3,1.1L759.9,48.9z"/>
		<path id="Path_389" class="st1" d="M782.9,39.3l1.8,1.4l-0.7,0.8l-1.8-1.4L782.9,39.3z"/>
		<path id="Path_390" class="st2" d="M825.7,377.4h1.7v0.4h-1.7V377.4z"/>
		<path id="Path_391" class="st1" d="M797.3,37.2l1.3,1.2l-0.7,1l-1.8-0.9L797.3,37.2z"/>
		<path id="Path_392" class="st1" d="M1144.1,116.4L1144.1,116.4C1144.2,116.8,1144.3,117.1,1144.1,116.4z"/>
		<path id="Path_393" class="st1" d="M645.5,333.1h2.4l-0.1,0.7l-2.2-0.8L645.5,333.1z"/>
		<path id="Path_394" class="st2" d="M771.7,669.2c0-0.3,0.1-0.6,0.1-0.9C771.8,668.6,771.8,668.9,771.7,669.2z"/>
		<path id="Path_395" class="st1" d="M1047.1,622.6l-0.7,0.4c0.2-0.1,0.5-0.2,0.8-0.2L1047.1,622.6z"/>
		<path id="Path_396" class="st1" d="M1164.3,394.9l2.9-1.1l-0.1-0.1l-2.8,1.1V394.9z"/>
		<path id="Path_397" class="st1" d="M1164.4,313.6l-2.7,1.4l0.1,0.1L1164.4,313.6L1164.4,313.6z"/>
		<path id="Path_398" class="st1" d="M1161.7,315l-2.7,1.5l0.1,0.1l2.6-1.5V315z"/>
		<path id="Path_399" class="st1" d="M1159,316.5l-0.4,0.1L1159,316.5L1159,316.5z"/>
		<path id="Path_400" class="st1" d="M743.8,659.7l2.6,1.4V661l-2.6-1.4V659.7z"/>
		<path id="Path_401" class="st1" d="M743.9,659.6l-2.9-1.2l-0.1,0.1L743.9,659.6L743.9,659.6z"/>
		<path id="Path_402" class="st1" d="M1049.8,84.6l-0.1,0.3L1049.8,84.6L1049.8,84.6z"/>
		<path id="Path_403" class="st1" d="M746.4,661.1l0.2,0.2L746.4,661.1L746.4,661.1z"/>
		<path id="Path_404" class="st2" d="M1168.5,392.2l-1.4,1.5l0.1,0.1L1168.5,392.2L1168.5,392.2z"/>
		<path id="Path_405" class="st1" d="M1047.2,622.7l1.4-1.6l-0.1-0.1l-1.4,1.5L1047.2,622.7z"/>
		<path id="Path_406" class="st1" d="M546.4,264.1l0.1-0.1L546.4,264.1z"/>
		<path id="Path_407" class="st1" d="M544.9,262.6l1.5,1.5l0.1-0.1L544.9,262.6L544.9,262.6z"/>
		<path id="Path_408" class="st2" d="M764.2,455.8h0.3l-0.2-0.2L764.2,455.8z"/>
		<path id="Path_409" class="st1" d="M1156.1,436.3l-0.3,0.3l0.4-0.1L1156.1,436.3z"/>
		<path id="Path_410" class="st1" d="M1156,418.5l-0.4,0.3L1156,418.5L1156,418.5z"/>
		<path id="Path_411" class="st1" d="M1156.1,418.6c0.5-0.5,0.9-1,1.4-1.5l-0.1-0.1C1157,417.5,1156.5,418,1156.1,418.6
			L1156.1,418.6z"/>
		<path id="Path_412" class="st1" d="M1164.3,394.8l-0.1,0.3L1164.3,394.8L1164.3,394.8z"/>
		<path id="Path_413" class="st2" d="M961.5,807.4l-7,2.9c2.8-5.5,8.6-5,10.5-9.2c1.1,0.2,2.3,0.2,3.4,0c7.3-3,14.3-6.2,21.5-9.2
			c2.9-1.2,6-1.9,9-3c17.7-6.6,35.2-13.4,52.9-19.8c21-7.5,42.1-14.7,63.1-21.9c2.7-0.9,5.5-2.3,9-1.7c-1.3,2.2-3.4,2.4-5.1,3.1
			c-49.6,18.3-99.1,36.5-148.7,54.8C967.1,804.5,964.3,806.1,961.5,807.4L961.5,807.4z"/>
		<path id="Path_414" class="st1" d="M471.6,565.7c2.5,1.3,3.1,3.9,4.1,6c6.5,13.7,12.9,27.4,19.4,41.1c7.8,16.3,15.6,32.7,23.5,49
			c0.9,1.8,2.2,3.5,3.1,5.3c0.9,1.6,1.4,3.5,1.3,5.4c-1-0.7-1.8-1.5-2.5-2.4c-3.9-6.8-8-13.4-11.3-20.4
			c-12.1-25.2-23.9-50.6-35.8-75.9c-0.9-2.1-1.7-4.3-2.3-6.4C471,566.8,471.3,566.4,471.6,565.7z"/>
		<path id="Path_415" class="st1" d="M498.4,674.7c-2.6-0.7-3.2-3.1-4.3-5c-4.6-8.2-9.2-16.4-13.4-24.9c-9.5-18.9-18.8-37.9-28-56.9
			c-2.4-4.6-4.3-9.5-5.5-14.6c0.7-0.3,0.9-0.4,1-0.4c0.2,0,0.4,0.1,0.6,0.3c0.6,1,1.2,1.9,1.7,2.9c15.9,32.9,31.8,65.8,47.7,98.6
			L498.4,674.7z"/>
		<path id="Path_416" class="st1" d="M455.5,665.3c-1.8-2.6-3.3-5.3-4.7-8.1c-9.7-24.2-19.3-48.4-28.9-72.6
			c-2.3-5.7-4.3-11.6-6.2-17.4c-0.7-2.6-1.2-5.3-1.6-8l-0.1,0.1c1.3,1.6,2.3,3.3,3.3,5.1c12.2,31.2,24.3,62.5,36.4,93.8
			c0.7,2.4,1.3,4.8,1.7,7.3L455.5,665.3z"/>
		<path id="Path_417" class="st2" d="M1093.9,800.5c-3.3,1.5-6.4,3.5-9.9,4.6c-25.9,7.8-51.9,15.5-77.9,23.1
			c-7.5,2.2-15.1,4-22.6,5.9c-1.2,0.4-2.5,0.2-3.6-0.4c1.2-0.4,2.4-1,3.8-1.3c32.5-9.7,65-19.5,97.6-29.2c4.1-1.2,8.5-1.7,12.8-2.5
			L1093.9,800.5z"/>
		<path id="Path_418" class="st1" d="M434.2,560.6c-0.8-0.4-1.5-0.6-1.5-0.8c-3.6-21-7.3-42-10.6-63c-0.6-4-0.1-8.1-0.1-13.7
			c4.1,7.1,3.1,13.8,4.5,19.9s2.1,12.7,3.1,19c1.1,6.6,2.5,13.1,3.1,19.7C433.4,547.9,435.6,554,434.2,560.6z"/>
		<path id="Path_419" class="st1" d="M445.6,562.7c-0.6-0.7-1.2-1.1-1.4-1.6c-1-4-1.9-8-2.5-12.1c-2.2-17.9-6-35.6-5.9-53.8
			c0.1-0.8,0.4-1.7,0.7-2.4c0.7,0.3,1.4,0.5,1.4,0.7c2.9,22.4,5.8,44.8,8.6,67.3C446.6,561.2,446,561.8,445.6,562.7z"/>
		<path id="Path_420" class="st1" d="M576.8,731.5c-2-1-3.9-2.2-5.7-3.6c-18-17-36-34-54-51.2c-4-3.9-7.5-8.3-10.3-13.1
			c0.8,0.4,1.5,0.9,2.2,1.4c19.8,21.2,41.2,40.6,62.2,60.4C573.2,727.3,574.8,729.4,576.8,731.5L576.8,731.5z"/>
		<path id="Path_421" class="st1" d="M450.2,502.4c1,1,1.5,1.2,1.6,1.6c3.6,19.8,7.3,39.6,10,59.7c-0.8-1.1-1.4-2.3-1.9-3.6
			c-2.6-11.1-5.1-22.3-7.5-33.5c-1.1-4.9-1.7-9.9-2.5-14.9C449.4,508.8,448.9,505.9,450.2,502.4z"/>
		<path id="Path_422" class="st1" d="M699.5,777.1c-1.1-0.2-2.2-0.4-3.3-0.8c-20.8-8.7-41.2-18.1-60.7-29.5c-1.5-0.8-2.7-2-3.5-3.5
			c0.9,0.1,1.8,0.3,2.7,0.7c20.1,10,40.3,20,60.4,30.1C696.6,775,698.1,776.1,699.5,777.1L699.5,777.1z"/>
		<path id="Path_423" class="st1" d="M402.9,523.7c-1.6-14.9-2.6-29.9-1.1-44.9c0.3-1,0.8-2,1.4-2.9c0.7,0.7,1.2,1,1.2,1.3
			c0,15.5,0,31,0,46.5H402.9z"/>
		<path id="Path_424" class="st1" d="M413.5,525.5c-0.6-0.9-1.1-1.8-1.5-2.8c-0.4-1.5-0.6-3.1-0.7-4.7c-0.4-9.8-2.5-19.5-0.8-29.3
			c0.1-0.6,0.7-1,1.6-2.2c2,4.5,1,8.8,1.4,12.8s0.7,8.2,0.9,12.3C414.5,515.8,415.9,520,413.5,525.5z"/>
		<path id="Path_425" class="st1" d="M405.2,529.8v3.3h-0.5l-0.2-3.3H405.2z"/>
		<path id="Path_426" class="st1" d="M458.2,672.1c-1.6-2-3.1-4-2.8-6.8l-0.1,0.1c2,1.7,3,4.2,2.8,6.8L458.2,672.1z"/>
		<path id="Path_427" class="st1" d="M1286.9,596.9h3.2v0.3l-3.1,0.3L1286.9,596.9z"/>
		<path id="Path_428" class="st1" d="M699.4,777.2c2.6-0.3,5.2,0.7,6.9,2.8l0.1-0.1L699.4,777.2L699.4,777.2z"/>
		<path id="Path_429" class="st1" d="M579.5,734.4l5.5,4l0.1-0.1C582.7,738,580.6,736.5,579.5,734.4L579.5,734.4z"/>
		<path id="Path_430" class="st1" d="M967.7,837.1h-2.4v-0.3h2.4V837.1z"/>
		<path id="Path_431" class="st1" d="M649.9,735.6v1.5l-4.3-2.9L649.9,735.6z"/>
		<path id="Path_432" class="st1" d="M459.4,675.2l1.7,1.2l-0.8,0.7c-0.3-0.7-0.5-1.3-0.8-2L459.4,675.2z"/>
		<path id="Path_435" class="st1" d="M706.2,780l4.2,1.2l0.1-0.1L706.2,780L706.2,780z"/>
		<path id="Path_436" class="st1" d="M593.4,745.3l-2.7-1.2l-0.1,0.1L593.4,745.3L593.4,745.3z"/>
		<path id="Path_437" class="st1" d="M623.6,745.5l2.8,1.1l0.1-0.1L623.6,745.5L623.6,745.5z"/>
		<path id="Path_438" class="st1" d="M713.2,782.6l-2.6-1.5l-0.1,0.1L713.2,782.6L713.2,782.6z"/>
		<path id="Path_439" class="st1" d="M713.1,782.7l1,0.3l-0.9-0.4L713.1,782.7z"/>
		<path id="Path_440" class="st1" d="M961.5,807.5l0.7,0.2L961.5,807.5L961.5,807.5z"/>
		<path id="Path_441" class="st1" d="M499.5,677.9l0.2,0.2c0.1,0.5,0,0.1-0.1-0.3L499.5,677.9z"/>
		<path id="Path_442" class="st1" d="M498.3,674.8c0.4,1,0.8,2,1.2,3.1l0.1-0.1c-0.4-1-0.8-2-1.2-3.1L498.3,674.8z"/>
		<path id="Path_443" class="st1" d="M459.5,675l-1.2-3l-0.1,0.1L459.5,675L459.5,675z"/>
		<path id="Path_444" class="st1" d="M622.3,744.1l1.4,1.4l0.1-0.1L622.3,744.1L622.3,744.1z"/>
		<path id="Path_445" class="st1" d="M622.4,744c-0.5-0.5-0.9-0.9-1.4-1.4l-0.1,0.1L622.4,744L622.4,744z"/>
		<path id="Path_446" class="st1" d="M589.2,742.7c0.5,0.5,0.9,1,1.4,1.4l0.1-0.1l-1.3-1.4L589.2,742.7z"/>
		<path id="Path_447" class="st1" d="M619.5,741.3l1.4,1.4l0.1-0.1L619.5,741.3L619.5,741.3z"/>
		<path id="Path_448" class="st1" d="M1127.1,686.1l0.2-0.3l-0.3,0.2L1127.1,686.1z"/>
		<path id="Path_449" class="st1" d="M967,796.2l1.6-1.2l-0.1-0.1L967,796.2L967,796.2z"/>
		<path id="Path_450" class="st1" d="M967,796.1v0.3V796.1L967,796.1z"/>
		<path id="Path_451" class="st1" d="M1094,800.6l0.1-0.3L1094,800.6L1094,800.6z"/>
		<path id="Path_452" class="st1" d="M589.3,742.6l-1.4-1.4l-0.1,0.1L589.3,742.6L589.3,742.6z"/>
		<path id="Path_453" class="st1" d="M618.1,739.9l1.4,1.4l0.1-0.1C619.2,740.7,618.7,740.3,618.1,739.9L618.1,739.9z"/>
		<path id="Path_454" class="st1" d="M586.5,739.9l1.3,1.4l0.1-0.1L586.5,739.9L586.5,739.9z"/>
		<path id="Path_455" class="st1" d="M618.2,739.8l-1.4-1.4l-0.1,0.1L618.2,739.8L618.2,739.8z"/>
		<path id="Path_456" class="st1" d="M586.6,739.8l-1.4-1.5l-0.1,0.1L586.6,739.8L586.6,739.8z"/>
		<path id="Path_457" class="st1" d="M644.3,732.8l1.5,1.5L644.3,732.8z"/>
		<path id="Path_458" class="st1" d="M578.1,733l1.3,1.4l0.1-0.1C579,733.8,578.6,733.4,578.1,733L578.1,733z"/>
		<path id="Path_459" class="st1" d="M578.2,732.9l-1.4-1.4l-0.1,0.1L578.2,732.9L578.2,732.9z"/>
		<path id="Path_460" class="st1" d="M525.8,648.7c-0.5-0.4-0.9-0.9-1.4-1.3l-0.1,0.1L525.8,648.7L525.8,648.7z"/>
		<path id="Path_461" class="st1" d="M524.4,647.4l-0.2-0.2l0.1,0.3L524.4,647.4z"/>
		<path id="Path_462" class="st1" d="M629.2,749.6L629.2,749.6L629.2,749.6z"/>
		<path id="Path_463" class="st1" d="M531.3,641.9l0.2-0.3L531.3,641.9L531.3,641.9z"/>
		<path id="Path_464" class="st1" d="M629.3,749.5l-1.3-1.4l-0.1,0.1L629.3,749.5L629.3,749.5z"/>
		<path id="Path_465" class="st1" d="M627.9,748.1l-1.5-1.5l-0.1,0.1L627.9,748.1L627.9,748.1z"/>
		<path id="Path_466" class="st1" d="M414.1,559.1L414.1,559.1L414.1,559.1z"/>
		<path id="Path_467" class="st1" d="M594.7,746.8l0.3,0.1l-0.2-0.3L594.7,746.8z"/>
		<path id="Path_468" class="st1" d="M593.2,745.3l1.5,1.5l0.1-0.1L593.2,745.3L593.2,745.3z"/>
		<path id="Path_469" class="st1" d="M1185.3,583.1c2.1-4.7,5.3-5.3,8.4-6c5.8-1.4,11.7-2.3,17.5-4c8.6-2.4,17.3-4.8,25.6-8
			c11.6-4.4,22.9-9.6,34.3-14.5c7.4-3.2,14.3-7.4,20.5-12.4c13.6-10.7,25.9-22.6,36-36.8c8.8-12.4,14.7-25.8,15.7-41.3
			c0.4-5.8-0.5-10.9-4.4-15.3c-1.9-2.4-3.7-5-5.3-7.6c2.4,0,3.8-0.4,4.8,0.1c7.6,3.3,12.1,9.1,12.2,17.6c0.3,12.7-2.4,25.3-8,36.7
			c-4.4,8.6-10,16.5-16.5,23.7c-10.2,11.8-21.8,22.4-34.5,31.4c-6.4,4.5-13.3,8.2-20.5,11.2c-8.9,3.7-17.9,7.3-26.6,11.3
			c-13.2,5.9-27.2,10-41.5,12c-4.1,0.6-8.1,1.5-12.2,2.1C1188.9,583.2,1187.1,583.2,1185.3,583.1L1185.3,583.1z"/>
		<path id="Path_470" class="st1" d="M673.5,719c4.5,4.1,9.8,6.7,15.2,9.2c20.8,9.7,41.5,19.4,62.3,29.3c4.5,2.2,8.8,4.8,13.2,7.3
			l0.1-0.1c-3.5-1-6.9-2.2-10.3-3.5c-24.5-11.2-49-22.5-73.4-33.8c-2.8-1.3-5.4-3.1-8.5-4.9L673.5,719L673.5,719z"/>
		<path id="Path_471" class="st1" d="M780.9,749.4c-2.5-0.4-4.9-1.1-7.3-1.9c-21.8-9.3-43.4-18.7-65.1-28.2
			c-3.7-1.8-7.4-3.7-10.9-5.8c-0.8-0.5-1.4-1.4-3.2-3.3c1.4,0.2,2.7,0.6,4.1,1c22.6,10.2,45.2,20.4,67.7,30.7
			c5,2.3,9.7,5.1,14.5,7.6L780.9,749.4z"/>
		<path id="Path_472" class="st1" d="M750.5,767.4c-4.1-1.5-8.3-2.5-12.2-4.4c-21.3-10.3-42.5-20.7-63.8-31.2
			c-2.6-1.2-4.9-2.9-6.6-5.1c0.7-0.1,1.4,0,2.1,0.2c26.1,12.9,52.3,25.9,78.4,38.9C749.1,766.3,749.8,766.8,750.5,767.4L750.5,767.4
			z"/>
		<path id="Path_473" class="st1" d="M772.5,759.2c-4.7-1.8-9.5-3.4-14.1-5.6c-16.4-7.8-32.6-15.7-48.9-23.7c-2.1-1-4.5-2-6.4-5.3
			c2,0.7,3.1,0.9,4,1.4c17.2,8.3,34.3,16.6,51.5,24.9c3.7,1.8,7.4,3.6,11,5.7c1.1,0.8,2,1.7,2.8,2.8L772.5,759.2z"/>
		<path id="Path_474" class="st1" d="M662.3,730c-4.9-2.6-9.1-6.3-12.4-10.9l-0.1,0.1c2.2,1.7,4.6,3.3,6.7,5.2
			C658.6,726.3,660.3,728.2,662.3,730L662.3,730z"/>
		<path id="Path_475" class="st1" d="M805.8,745.3v1.5l-4.2-1.4l0,0L805.8,745.3z"/>
		<path id="Path_476" class="st1" d="M753.4,768.8l0.5,0.1l-0.4-0.2L753.4,768.8z"/>
		<path id="Path_477" class="st1" d="M673.6,718.9l-3-1.1l-0.1,0.1L673.6,718.9L673.6,718.9z"/>
		<path id="Path_478" class="st1" d="M802.9,738.4l2.9,1.5L802.9,738.4z"/>
		<path id="Path_479" class="st1" d="M805.7,739.8l2.9,1.5L805.7,739.8z"/>
		<path id="Path_480" class="st1" d="M808.6,743.9l-2.9,1.5L808.6,743.9z"/>
		<path id="Path_481" class="st1" d="M789.2,748.1l-2.7-1.4l-0.1,0.1L789.2,748.1L789.2,748.1z"/>
		<path id="Path_482" class="st1" d="M789,748.2l2.7,1.4l0.1-0.1L789,748.2L789,748.2z"/>
		<path id="Path_483" class="st1" d="M780.8,749.5l2.6,1.5l0.1-0.1L780.8,749.5L780.8,749.5z"/>
		<path id="Path_484" class="st1" d="M791.7,749.6l0.4,0.1l-0.3-0.2L791.7,749.6z"/>
		<path id="Path_485" class="st1" d="M783.4,751h0.4l-0.3-0.2L783.4,751z"/>
		<path id="Path_486" class="st1" d="M772.4,759.3h0.4l-0.2-0.1L772.4,759.3z"/>
		<path id="Path_487" class="st1" d="M764.2,764.8c0.4,0.1,0.9,0.1,0.4,0l-0.3-0.2L764.2,764.8z"/>
		<path id="Path_488" class="st1" d="M856.8,766l-2.9,1.2l0.1,0.1L856.8,766L856.8,766z"/>
		<path id="Path_489" class="st1" d="M750.5,767.5l2.9,1.3l0.1-0.1L750.5,767.5L750.5,767.5z"/>
		<path id="Path_490" class="st1" d="M852.6,768.8l-0.7,0.4l0.8-0.3L852.6,768.8z"/>
		<path id="Path_491" class="st1" d="M801.6,745.4l-0.2-0.2L801.6,745.4L801.6,745.4z"/>
		<path id="Path_492" class="st1" d="M670.6,737l0.1,0.3L670.6,737L670.6,737z"/>
		<path id="Path_493" class="st1" d="M670.7,737l-0.3-0.2L670.7,737L670.7,737z"/>
		<path id="Path_494" class="st1" d="M665.1,733L665.1,733L665.1,733z"/>
		<path id="Path_495" class="st1" d="M663.7,731.6l1.4,1.4l0.1-0.1L663.7,731.6L663.7,731.6z"/>
		<path id="Path_496" class="st1" d="M662.3,730.1l1.5,1.5l0.1-0.1L662.3,730.1L662.3,730.1z"/>
		<path id="Path_497" class="st1" d="M650,730.1l-0.3-0.1l0.2,0.2L650,730.1z"/>
		<path id="Path_498" class="st1" d="M698.2,717.7l0.2,0.3L698.2,717.7L698.2,717.7z"/>
		<path id="Path_499" class="st1" d="M649.9,719.1l-1.4-1.4l-0.1,0.1L649.9,719.1L649.9,719.1z"/>
		<path id="Path_500" class="st1" d="M853.9,767.2l-1.4,1.5l0.1,0.1C853.1,768.3,853.5,767.8,853.9,767.2L853.9,767.2z"/>
		<path id="Path_501" class="st1" d="M698.3,717.7l-0.3-0.2L698.3,717.7L698.3,717.7z"/>
		<path id="Path_502" class="st1" d="M669.1,716.5l1.4,1.4l0.1-0.1L669.1,716.5L669.1,716.5z"/>
		<path id="Path_503" class="st1" d="M648.6,717.7l-1.4-1.4l-0.1,0.1L648.6,717.7L648.6,717.7z"/>
		<path id="Path_504" class="st1" d="M667.8,715.1l1.3,1.4l0.1-0.1L667.8,715.1L667.8,715.1z"/>
		<path id="Path_505" class="st1" d="M692.7,713.7l0.2,0.2L692.7,713.7L692.7,713.7z"/>
		<path id="Path_506" class="st1" d="M667.9,715c-0.5-0.5-1-1-1.4-1.5l-0.1,0.1L667.9,715L667.9,715z"/>
		<path id="Path_507" class="st1" d="M692.8,713.6l-1.4-1.4l-0.1,0.1L692.8,713.6L692.8,713.6z"/>
		<path id="Path_508" class="st1" d="M691.4,712.2l-1.4-1.4h-0.1l1.3,1.5L691.4,712.2z"/>
		<path id="Path_509" class="st1" d="M690.1,710.8l-0.3-0.1L690.1,710.8L690.1,710.8z"/>
		<path id="Path_510" class="st1" d="M462.3,405.9L462.3,405.9L462.3,405.9z"/>
		<path id="Path_513" class="st1" d="M496.9,429.5l-2,1l-0.2-0.7L496.9,429.5L496.9,429.5z"/>
		<path id="Path_514" class="st1" d="M481.5,426.8l2.9-1.5L481.5,426.8z"/>
		<path id="Path_515" class="st1" d="M480.2,428.2l1.5-1.5L480.2,428.2z"/>
		<path id="Path_518" class="st1" d="M851.3,753.6c-1.1,1.5-2.4,2.1-4.8,1.6c1.6-2.2,3.4-1.7,5-1.5L851.3,753.6z"/>
		<path id="Path_521" class="st1" d="M674.6,698.4l1.5,1.5L674.6,698.4z"/>
		<path id="Path_522" class="st1" d="M699.6,702.6l-1.5-1.5L699.6,702.6z"/>
		<path id="Path_523" class="st1" d="M732.4,697.2L732.4,697.2L732.4,697.2z"/>
		<path id="Path_526" class="st2" d="M609.2,202.2c3.8-6.3,10.7-11.5,42-31.7c14.6-9.5,29.4-18.8,45.4-26.1l-1.6-2.9
			c3.3-2.5,7.4-3.4,11.2-4.5c18.6-5.2,37.1-10.5,55.9-15.1c22-5.5,44.3-10.2,66.4-15.3c0.5-0.2,0.9-0.4,1.4-0.7
			c-6.6-1.9-13,2.4-20.9-0.1c11.8-1.7,22.2-3.4,32.6-4.7c12.1-1.5,24.2-2.5,36.3-3.9c15.8-1.9,31.7-1.4,47.5-1.5
			c6.8,0,13.7,1.3,20.4-1.3c2.3-0.9,5.5-0.2,8.2,0.3c12.8,2.6,25.6,5.3,38.4,8c0.8,0.2,1.5,0.8,3.6,2.1h-13.3
			c-7.8-1.5-16.5-3.6-25.4-4.8c-8.7-1.1-17.4-1.7-26.1-1.9c-17.9-0.6-35.9-0.1-53.7,1.6c-11.2,1.1-22.3,2.6-33.5,3.9
			c-2.3,0.3-4.6,0.4-7.3,0.7l2.5,2.2c-5.6,3.2-12.1,2.6-17.6,5.9c5.3-0.6,10.6-1.2,16-1.8c8-0.8,16-1.7,24-2.4
			c8.5-0.8,16.9-1.6,25.4-2.3c7.5-0.6,15.1-1.4,22.7-1.7c13.3-0.6,26.6-1.2,39.9-1.4c7.3-0.1,14.7,0.8,22,1.2c0.3,0,0.6,0.5,1.1,1
			c-0.5,0.3-1.1,0.6-1.7,0.7c-10.3,0-20.7-0.5-31-0.2c-14.5,0.5-28.9,1.6-43.3,2.4c-7.1,0.4-14.2,1.1-21.3,1.6
			c-16.3,1.3-32.5,2.6-48.8,3.9c-5,0.4-10,2.1-15.4-0.3L742,130.4c-4.9,1.2-9.8,2.6-14.7,3.8c-5.4,1.2-10.8,2.3-15,6.3
			c-0.7,0.6-1.5,1-2.4,1.3c-22.7,9.8-43.5,22.8-64.2,36.1c-8.7,5.6-17.4,11.2-26,16.9c-3,2-5.8,4.5-8.7,6.7
			C610.5,201.9,609.9,202.1,609.2,202.2z"/>
		<path id="Path_527" class="st2" d="M614,181.3c3.6-5.4,9-9.2,14.1-13c16.3-12,32.7-23.8,49.1-35.5c4.1-2.9,8.6-5.3,12.9-8l5.1,1.3
			c40.6-11.9,81.8-21.5,123.5-28.9c11.7-2.1,23.5-3.9,35.3-5.5c4.8-0.8,9.7-0.5,14.3,0.8c-4.2,0.6-8.4,1-12.5,1.8
			c-11.3,2-22.7,3.5-33.8,6.2c-35.2,8.7-70.3,17.8-105.4,26.8c-5.6,1.4-11.1,2.9-16.7,4.3c-6.3,1.4-12.3,4-17.6,7.5
			c-11.5,7.7-23,15.2-34.3,23c-8.5,5.8-16.9,12-25.4,17.9c-6.8,4.8-13,10.3-18.6,16.4c-6,6.6-12.2,13.1-18.3,19.7
			c-0.7,0.8-1.7,1.2-2.8,1.1c0.4-0.9,0.8-1.7,1.4-2.5c8.1-9.1,16.2-18.1,24.3-27.2c1.4-1.5,2.5-3.2,3.8-4.8l-0.1,0.1l1.5-1.5H614z
			 M634.7,167.3c2.4-0.3,4.5-1.8,5.5-4c2-1.1,4-2,5.9-3.3c12.4-8.3,24.7-16.7,37.2-24.9c2.5-1.6,5.2-2.9,8.1-3.7
			c9.5-2.7,19-5.2,28.5-7.8c4.1-1.1,8.2-2.3,12.3-3.5c-11.6,1.7-22.9,4.4-34.2,7.1c-2.8,0.7-5.7,1.1-10.1,1.9
			c-0.8,0.3-1.5,0.7-2.2,1.2c-14.5,10.1-29,20.2-43.4,30.3c-0.8,0.8-1.5,1.7-2,2.6C637.4,163.2,635.9,165.2,634.7,167.3l-0.2,0.3
			L634.7,167.3z"/>
		<path id="Path_528" class="st2" d="M761.5,135.6c-2.6,2.9-6.2,3.8-9.7,4.7c-10,2.7-20,5.1-30,7.9c-4,1-7.9,2.4-11.5,4.3
			c-15.1,8.3-30.1,16.8-45,25.4c-1.1,0.8-2.1,1.6-3.1,2.5c0.6,4,2.8,7.1,4.9,10c8.5,11.5,17,22.9,25.6,34.2c3.7,4.9,7.6,9.7,11,15.2
			c-0.8-0.4-1.6-0.9-2.3-1.5c-3.5-4-7.1-7.8-10.4-12c-7.8-10-15.4-20-23-30.2c-3.2-4.4-6-9.2-9-13.8c-5.8,2-26.4,14.7-31.1,19.2
			c5.3,11.2,10.8,22.5,16.3,34.3c8.9,4,18.1,7.9,28.3,10.2c-2.8-3.8-5.9-7.4-8.5-11.4c-2.7-4.3-7.7-5.3-11.8-8.6l4.4-0.9
			c-5.6-8.8-12.4-16.6-16.7-26.2c1,0.6,1.8,1.4,2.6,2.2c5.5,7.4,11,14.8,16.2,22.3c2.5,3.6,6.1,6.3,10.2,7.7
			c12.9,4.8,25.8,9.8,38.7,14.7c1.4,0.5,2.7,1.4,3.6,2.6c-7.3-2.4-14.7-4.8-22.1-7.3c-7.1-2.4-14.1-5-22.4-8
			c3.2,6.1,6.1,10.7,9.9,14.6c1.7,1.7,4.3,2.7,6.6,3.6c12.6,5,25.2,9.8,37.7,15c-8.3-1.5-16.2-4.5-24.1-7.3
			c-8.5-3-16.8-6.1-25.2-9.3c-8.1-3.2-16.2-6.5-25.5-10.2c-1.2-0.6-3.6,3.6-5.8,0.4l-0.1,0.1l0.9-2.1c-1.9-1.2-3.4-2.2-5.1-0.7
			l0.1-0.1l-11.1-8.3c5.1,0,9.1,2.8,14.3,4.2c-0.7-6.1-4-10.8-6.2-15.7c-2.3-4.9-4.9-9.7-7.5-14.6l-7.3,2.9l0.1,0.1l5.7-6.6
			c2.4-1.2,4.8-2.4,7-3.9c21.4-14.8,44.1-27.4,66.5-40.5c7.9-4.6,16.5-8.1,25.4-10.3c10.7-2.7,21.3-5.7,32-8.4
			c2.2-0.4,4.5-0.7,6.8-0.8L761.5,135.6z"/>
		<path id="Path_529" class="st2" d="M748.5,283.7c43.5,8.3,87.6,11.5,132,16.5c4.6-2.8,10.2-2.8,15.6-3.3
			c15.3-1.4,30.6-2.9,45.9-4.4c13.9-1.4,27.8-2.9,41.7-4.6c7.7-0.9,15.4-2.3,23.1-3.4c1.6-0.4,3.3-0.2,4.8,0.5
			c-8.3,1.5-16.7,3.2-25,4.5c-9.7,1.5-19.5,2.9-29.2,4.1c-10.7,1.4-21.4,2.4-32.1,3.8c-8.8,1.1-17.7,1.8-26.6,3.2
			c-8.9,1.5-17.9,1.1-26.8,0.8c-10.8-0.4-21.5-1.4-32.3-2.4c-12.8-1.2-25.6-2.5-38.4-3.9c-9.8-1.1-19.6-2.4-29.3-3.9
			c-6.8-1.1-13.5-2.7-20.2-4.2c-1.3-0.4-2.5-0.9-3.6-1.6C748.3,284.8,748.4,284.3,748.5,283.7z"/>
		<path id="Path_530" class="st2" d="M733.2,292.4c5.1,1.1,10.2,2.3,15.3,3.1c14.9,2.6,29.9,5.1,44.8,7.5c8.8,1.4,17.7,2.9,26.6,3.9
			c12.5,1.4,25.1,2.5,37.7,3.5c7.8,0.6,15.6,0.9,23.4,1.1c15.9,0.5,31.6-1.1,47.4-2.4c13-1.2,26.1-2,39.1-3.2c10-1,20-2.4,30-3.6
			c5.6-0.9,11.4-1.1,17.1-0.7c-10.7,1.5-21.4,3.2-32.1,4.6c-9.1,1.2-18.2,2.2-27.3,3.1c-14.6,1.5-29.2,2.9-43.9,4.1
			c-14.2,1.2-28.5,2.3-42.7,0.5c-16.6-2.1-33.3-2.2-50-4.4c-23.7-3-47.3-6.2-70.7-10.7c-4-0.9-8-2-11.9-3.4
			c-1.1-0.5-2.2-1.3-3.1-2.1L733.2,292.4z"/>
		<path id="Path_531" class="st2" d="M740.2,258.4c1.8,0,3.6-0.1,5.4,0c5.7,0.4,11.4,1.2,17.1,1.5c19.7,1,39.4,2.1,59.1,2.7
			c26.8,0.8,53.7,1.2,80.5,1.9c1,0.1,2,0.4,2.9,0.6c-7.1,0.5-12.7,1.1-18.3,1.1c-32.1,0.4-64.3,0.7-96.4-1.1
			c-11.9-0.7-23.8-1.3-35.7-2.1c-3.9-0.4-7.7-0.9-11.6-1.8c-1.3-0.4-2.5-0.9-3.6-1.6L740.2,258.4z"/>
		<path id="Path_532" class="st2" d="M1069.1,156.4c-1.6-0.1-3.2-0.2-4.7-0.6c-13.4-4.1-26.7-8.2-40-12.4c-1.7-0.6-3.3-1.5-4.7-2.7
			c9.7,0.9,19.3,2.5,28.8,4.8c15.4,3.6,30.7,7.7,45.2,13.9c4.8,2.1,9.5,4.5,14.1,7c1.5,0.8,3.3,1.7,2.9,4.7c-1-0.1-2-0.4-3-0.7
			c-8-4.5-16.5-8-25.4-10.5c-3.6-1.1-7.3-1.5-11-2.3c-0.9-0.3-1.7-0.7-2.4-1.2H1069.1z"/>
		<path id="Path_533" class="st2" d="M728,271.3c0.9-2.1,2.6-1.8,4.1-1.4c10.4,3.2,21.2,3.8,31.8,5c11.6,1.3,23.2,2.7,34.9,3.8
			c13.5,1.3,27,2.4,40.5,3.6l32.8,2.9v0.7c-5.3,0-10.5,0.2-15.7,0c-11.9-0.6-23.8-1.2-35.7-2.1c-14.9-1.1-29.8-2.4-44.6-4
			c-14.6-1.6-29.1-3.9-43.6-5.9C730.6,273.6,728.7,273.3,728,271.3z"/>
		<path id="Path_534" class="st2" d="M711.5,296c8.2,1,14.6,4.2,21.4,5.6c6.8,1.4,13.9,3.1,20.8,4.5s13.9,2.9,20.9,4.2
			c7,1.3,14,2.4,21,3.6s14,2.6,21,3.8s14,2.2,21,3.4c7,1.2,14.2-0.6,21.1,2.2c0.1,2.7-1.8,2.7-3.6,2.5c-4.1-0.5-8.1-1.2-12.2-1.7
			c-10.9-1.5-21.8-2.7-32.6-4.5c-16.5-2.8-33-5.6-49.4-9.1c-14.1-3-28.1-6.8-42.1-10.4C716,299.7,713.4,298.2,711.5,296L711.5,296z"
			/>
		<path id="Path_535" class="st2" d="M830.6,124c5-0.7,9.6-1.5,14.3-1.9c13.5-1.2,26.9-2.2,40.4-3.3c8-0.7,16-1.5,24-2.1
			c18.1-1.3,36.1-2.6,54.3-1.9c1.9,0,3.8,0.7,5.4,1.8c-0.8,0.4-1.7,0.8-2.6,0.9c-3.9,0.1-7.8,0-11.7,0c-17.4,0-34.8,1.2-52.1,2.8
			c-9.1,0.8-18.3,1.2-27.4,1.9c-7.8,0.6-15.5,1.4-23.3,2c-6.6,0.5-13.3,0.7-19.9,1C831.5,125.2,831.3,124.7,830.6,124z"/>
		<path id="Path_536" class="st2" d="M1076.7,233.3c-0.4,0.3-0.8,0.5-1.2,0.6c-36.3,2.7-72.7,5.3-109,7.9c-1.4,0.1-2.8,0-4.1-0.4
			c3.4-1.5,7-2.3,10.7-2.6c21.8-1.7,43.4-3.5,65.1-5.1c10.3-0.7,20.5-1,30.9-1.5c2.5-0.1,5,0,7.5,0L1076.7,233.3z"/>
		<path id="Path_537" class="st2" d="M745.1,246c-3.5-0.6-5.4-3.4-7.4-5.7c-9.9-11.4-19.7-23-29.4-34.6c-7.7-9.4-15.2-19-22.7-28.5
			c-1.4-1.7-2.5-3.6-3.8-5.4c2-1.8,2.7-0.3,3.6,0.7c13.9,17.1,27.8,34.1,41.7,51.2c4.3,5.3,8.9,10.5,13.2,15.8
			c1.7,2.1,3.2,4.4,4.7,6.6L745.1,246z"/>
		<path id="Path_538" class="st2" d="M992.2,269.7c1.2-0.7,2.4-1.2,3.7-1.5c7.7-0.5,14.8-3.2,21.6-6.4c14-6.4,27.8-13.1,41.8-19.5
			c2-0.9,3.8-2.6,7-1.8c-0.5,1-1.1,1.9-1.8,2.7c-0.5,0.5-1.1,0.8-1.8,1c-18.1,8.5-36.2,16.9-54.4,25.3c-2.9,1.3-6,2.1-9.3,3.3
			c-0.7-1.3-1.2-2.2-2-3.5l-5.1,0.3L992.2,269.7z"/>
		<path id="Path_539" class="st2" d="M786.4,226.5c6.3-0.2,12.7,0,19,0.5c8,0.4,16.1,1.1,24.1,0.7c5.6-0.3,11.1-2.3,16.7-3.4
			c2.2-0.5,4.4-0.8,6.6-0.8c-3.1,2.8-7.5,2.3-12,4.8c5.9,2.2,11.3,0.1,16,2.9c-0.9,0.3-1.9,0.6-2.9,0.7c-14.5-0.2-28.9-0.5-43.4-0.9
			c-6-0.2-11.9-0.8-17.9-1.2C790.4,229.6,788.1,229.4,786.4,226.5z"/>
		<path id="Path_540" class="st2" d="M719.2,243.1c-1.4-1.3-2.9-2.6-4.2-4c-7.5-8.2-42.7-54.9-45.6-60.6c2.1-0.6,2.9,1,3.7,2.1
			c8,10.4,15.9,20.7,23.8,31.1c5.4,7.1,10.7,14.3,16.1,21.4c1.5,2,3.4,3.6,5,5.6c0.8,1,1.5,2.1,2.3,3.2L719.2,243.1z"/>
		<path id="Path_541" class="st2" d="M993.7,264.8c6-5.7,63.8-37.8,71-39.8C1058.7,230.5,1001.1,263.1,993.7,264.8z"/>
		<path id="Path_542" class="st2" d="M765.7,244.6c-7-7.8-14.3-15.4-21-23.4c-8.3-10-16.3-20.3-24.3-30.6c-1.1-1.7-2.1-3.5-2.9-5.3
			l-0.1,0.1c3.1-0.1,4.2,2.4,5.8,4.3c6.6,8.3,13.1,16.6,19.6,24.9s13.3,16.5,19.8,24.8c1.1,1.7,2.1,3.4,3,5.3L765.7,244.6z"/>
		<path id="Path_543" class="st2" d="M992.1,269.6c-7.4,1.3-14.8,2.9-22.2,4c-9.9,1.5-19.9,3-29.9,4c-11.4,1.2-22.8,1.9-34.2,2.8
			c-1.3,0.1-2.6-0.4-3.5-1.3c0.8-0.5,1.7-0.8,2.6-1c13-1.1,26-1.9,39-3.2c9.8-1,19.5-2.6,29.2-3.6c6.3-0.7,12.7-1,19.1-1.4
			L992.1,269.6z"/>
		<path id="Path_544" class="st2" d="M1020.9,194.9c-2.5-0.5-4.9-1.1-7.3-2c-10.5-4.6-21-9.2-30.6-15.7c-6.9-1.3-14,0.2-21.5-1.7
			c4.6-1.9,17.1-1.8,25.8-0.1c2.2,1.8,4.6,3.5,7,5c5.3,2.8,10.7,5.2,16,8c3.6,1.9,6.9,4.4,10.3,6.6L1020.9,194.9z"/>
		<path id="Path_545" class="st2" d="M631.9,258.5c1.8,0.2,3.5,0.6,5.2,1.1c21.9,8.9,43.7,17.8,65.5,26.7c0.9,0.4,1.7,1.1,2.2,2
			c-1.6-0.3-3.2-0.7-4.8-1.2c-20.4-8.1-40.9-16.2-61.2-24.4c-2.4-1-4.5-2.9-6.7-4.3L631.9,258.5z"/>
		<path id="Path_546" class="st2" d="M633.4,243.3c3.1,3,6.9,5.4,11,6.9c16.9,7.3,33.7,14.4,50.6,21.6c2,1,3.9,2.1,5.8,3.2l0.1-0.1
			c-2-0.3-4-0.8-5.9-1.4c-19.5-8.1-38.9-16.2-58.3-24.3c-1.9-0.9-3.7-2-5.5-3.1c1-1.2,1.7-2,2.4-2.9L633.4,243.3z"/>
		<path id="Path_547" class="st2" d="M870.4,245.1c-16.3,2.2-68.6,0.1-78-3.1c7.5-0.2,15-0.5,22.5,0.4c2,0.3,4.1,0.6,6.1,0.7
			c15.8,0.6,31.6,1.2,47.4,1.8C869.1,244.9,869.7,245,870.4,245.1z"/>
		<path id="Path_548" class="st2" d="M1016.5,280.7c0.6-0.6,1.1-1.5,1.8-1.8c14.5-6.6,29-13.2,44.1-18.7c-4.7,2.8-9.2,5.8-14,8.3
			c-5.7,2.9-11.6,5.5-17.5,8.1c-3.5,1.5-6.2,4.7-10.1,5.3c-1.2,0.2-2.6,0.1-3.8,0.2L1016.5,280.7z"/>
		<path id="Path_549" class="st2" d="M886.8,138.1c-1.4,1.5-1.7,2.4-2.2,2.4c-14.7,2.7-29.6,4.3-44.6,4.8c0.7-0.6,1.3-1.6,2.1-1.8
			c3.8-0.8,7.7-1.5,11.5-2c9.3-1.3,18.6-2.5,28-3.6C883.3,137.8,885,137.9,886.8,138.1L886.8,138.1z"/>
		<path id="Path_550" class="st2" d="M789.4,212.7c-2.7-0.2-3.6-2.5-4.7-4.4c-1.3-2.3-2.4-4.8-3.9-7.6c-1.4,0.8-2.7,1.7-3.9,2.6
			c-4.7,4.3-9.3,8.7-13.9,13c-1.3,1.2-2.8,2.2-4.2,3.4l0.1,0.1c0.7-1.6,1.6-3.2,2.6-4.7c8.2-9.9,17.9-18.2,28.2-26
			c0.7-0.5,1.5-0.9,2.3-1.2c1.5,1.5,0.1,2.2-0.6,2.9c-2.7,2.4-5.5,4.7-8.5,7.3l6.3,14.7L789.4,212.7z"/>
		<path id="Path_551" class="st2" d="M784.5,174.3l-33.1,39c0-1,0.1-2.1,0.4-3.1c0.6-1.3,1.3-2.4,2.1-3.5
			c7.5-10.1,15.2-20.1,24.3-28.9c1.3-1.2,2.8-2.4,4.3-3.4C782.7,174.1,783.2,174.3,784.5,174.3z"/>
		<path id="Path_552" class="st2" d="M904.7,161.4c-4.7,3-15,3.3-42.2,2.6c-2.9-0.1-5.9,0-8.5-1.8c0-0.3,0-0.6,0.1-0.9
			c0.1-0.2,0.4-0.4,0.5-0.4C871.5,161,888.1,161.2,904.7,161.4z"/>
		<path id="Path_553" class="st2" d="M824.2,176.9l13.3,9.9c7.3-6,13.4-13,22.4-17c-1.1,3.3-1.1,3.2-6.4,7.3
			c-2.9,2.2-5.7,4.5-8.6,6.8c-2.7,2.2-5.4,4.2-8.8,4.9C830.6,185.7,826.3,182,824.2,176.9z"/>
		<path id="Path_554" class="st1" d="M608.5,243.2c-1.9-1.6-3.6-3.4-5.2-5.2c-4.4-5.9-8.5-12-12.8-18.1l-4.4-0.2
			c5.5-7.8,12.2-14.7,19.7-20.7c0.2,2.8-2,4.2-3.6,5.9c-1.8,2.1-3.8,4-5.7,6s-3.3,3.7-5.1,5.8c1.1,1.9,1.9,3.5,2.9,4.9
			c3.9,5.6,8,11.2,11.9,16.9C607.1,240,607.8,241.7,608.5,243.2L608.5,243.2z"/>
		<path id="Path_555" class="st2" d="M831,119.6c-14.2,4.1-28.1,8.9-43.7,9.9C793,126,823.7,118.9,831,119.6z"/>
		<path id="Path_556" class="st2" d="M1051.6,276.5c-0.9,1.2-1.4,2.2-2.2,2.7c-8.8,5.3-27,11.4-34,11.4c0.2-0.4,0.3-1,0.5-1.1
			c11-4.5,22-8.9,33.1-13.4C1049.5,275.9,1050.2,276.3,1051.6,276.5z"/>
		<path id="Path_557" class="st1" d="M1030,297.4c10.3-2.4,19.8-6.8,30-9.4c-0.6,3-2.9,3.6-4.7,4.5
			C1045.4,296.9,1038.9,298.3,1030,297.4z"/>
		<path id="Path_558" class="st2" d="M1036,208.7c-0.8,1.1-1.6,2.1-2.6,3.1c-8.7,7-17.5,14-26.3,21c-1.3,0.8-2.7,1.5-4.2,2.1
			l0.1,0.1c1.2-1.6,2.2-3.6,3.7-4.8c8.8-6.9,17.8-13.7,26.8-20.4c0.8-0.4,1.7-0.7,2.6-0.9L1036,208.7z"/>
		<path id="Path_559" class="st2" d="M1131.8,193.5c-3.2,8.9-5.1,18.1-10.4,26.1c-2.7-1.6-1.9-4.1-1.2-5.6
			c3.2-6.7,6.9-13.3,10.4-19.9C1130.9,193.8,1131.4,193.7,1131.8,193.5z"/>
		<path id="Path_560" class="st2" d="M1146.4,215.6c-1.2,5.5-5.5,9.4-8,14.2c-1.2,2.3-2.4,4.7-4.2,8.2l-6,4.1
			c0.7-2.4,0.7-3.6,1.3-4.4c5.1-7,10.2-14,15.4-21c0.4-0.5,1.1-0.7,1.7-1L1146.4,215.6z"/>
		<path id="Path_561" class="st1" d="M850.1,152c1-0.7,1.5-1.4,2-1.4c9.8-0.5,19.6-1,29.4-1.4c0.2,0,0.5,0.6,0.8,1.2
			c-0.5,0.4-0.9,1.1-1.4,1.1c-9.4,0.6-18.7,1.2-28.1,1.6C852.1,153.1,851.4,152.6,850.1,152z"/>
		<path id="Path_562" class="st2" d="M1122.1,260.5c-5.7,5.5-23.4,13.9-31.1,15.7c-0.1-2.1,1.4-2.7,2.7-3.3
			C1103.2,268.7,1112.7,264.6,1122.1,260.5z"/>
		<path id="Path_563" class="st2" d="M963,236.4c0.6-1.4,1.5-2.8,2.4-4c5.6-5.5,11.2-10.8,16.9-16.2c0.7-0.4,1.4-0.7,2.1-0.9
			c0,0.9,0.3,1.7,0,2C977.9,224.4,971.4,231.5,963,236.4L963,236.4z"/>
		<path id="Path_564" class="st2" d="M1004.4,211.4c-2.1-0.9-4.1-1.9-5.9-3.1c-4-3-7.9-6.2-11.7-9.5c-1.7-1.4-3.6-2.7-3.7-5.4
			c3.1,0.9,3.1,0.9,7.6,4.8c2.4,2.1,4.8,4.1,7.2,6.3s4.3,4.6,6.5,7L1004.4,211.4z"/>
		<path id="Path_565" class="st1" d="M970.8,127.3c5-0.6,19.1,3.4,29,8.5c-9.4-1.7-18.6-4-27.7-6.9
			C971.6,128.7,971.3,127.9,970.8,127.3z"/>
		<path id="Path_566" class="st2" d="M1142.5,247.2c3.1-7.7,10.2-18.5,14-22C1155.8,231.2,1148.8,242.5,1142.5,247.2z"/>
		<path id="Path_567" class="st2" d="M819.6,212.8c-1.4-0.6-3.2-0.8-4.3-1.8c-4.6-4-9.1-8.2-13.5-12.4c-0.8-0.8-1.1-2.2-1.8-3.8
			c3.9,1.7,13.2,10.6,19.4,18.1L819.6,212.8z"/>
		<path id="Path_568" class="st2" d="M1025,193.7c-5.7-5-11.4-9.9-17-14.9c-1.2-1.1-2.3-2.5-3.6-4c1.1-0.3,1.6-0.6,1.9-0.5
			c6.2,3.9,11.7,8.8,16.3,14.4c1,1.5,1.8,3.1,2.4,4.8V193.7z"/>
		<path id="Path_569" class="st2" d="M760,180.7c-4.1,7.3-10.4,12.6-15.8,20.4c-0.2-2.9,0.9-5.8,3-7.8
			C751.2,188.9,754.1,183.2,760,180.7z"/>
		<path id="Path_570" class="st2" d="M1093.8,179.4c-6.1,1.4-9.7-0.7-12.7-5.3C1087.3,174.7,1090.2,175.8,1093.8,179.4z"/>
		<path id="Path_571" class="st1" d="M993.8,113.5c-4.5,0-8.9-0.6-12.6-3.2C986,109.1,990,111.1,993.8,113.5z"/>
		<path id="Path_572" class="st2" d="M819,185.8c6.7,6,6.7,6,7.7,10.3C822.4,194.3,820.1,191.5,819,185.8z"/>
		<path id="Path_573" class="st2" d="M963,179.8c3.9-0.5,6,1.3,9.2,4.3C968,183.1,965.3,182.8,963,179.8z"/>
		<path id="Path_574" class="st1" d="M622.3,232.2c-2.9-2.2-5.7-4.6-6.7-8.3l-0.1,0.1C618.1,226.4,621.2,228.5,622.3,232.2
			L622.3,232.2z"/>
		<path id="Path_575" class="st2" d="M1102.7,254l-5.5,2.7C1098.3,253.2,1098.3,253.2,1102.7,254z"/>
		<path id="Path_576" class="st2" d="M699.7,166.2c2.1-2.3,4.8-2.6,8.6-3c-2.5,1.9-5.5,3-8.7,2.9L699.7,166.2z"/>
		<path id="Path_577" class="st2" d="M1041.4,204.5c-1,2.2-3,3.8-5.5,4.2l0.1,0.1c1-2.4,3.3-3.3,5.5-4.2L1041.4,204.5z"/>
		<path id="Path_578" class="st1" d="M612.8,210.2c1-2.2,3.1-3.8,5.5-4.1l-0.1-0.1c-1.1,2.3-3.2,3.4-5.5,4.1L612.8,210.2z"/>
		<path id="Path_579" class="st1" d="M1020.3,298.7l2.4-0.1v0.6l-2.4,0.1V298.7z"/>
		<path id="Path_580" class="st1" d="M802.3,107.3h2.8v0.4h-2.8V107.3z"/>
		<path id="Path_581" class="st2" d="M1041.5,204.7l4.2-2.6l-0.1-0.1l-4.2,2.6L1041.5,204.7z"/>
		<path id="Path_582" class="st2" d="M699.7,166.1l-5.5,1.3l0.1,0.1c1.6-1.6,3.5-1.5,5.5-1.3L699.7,166.1z"/>
		<path id="Path_583" class="st1" d="M814.4,162.5l3-0.4l0.1,0.4H814.4z"/>
		<path id="Path_584" class="st1" d="M825.6,161.3l-1.2-0.1V161h1.2V161.3z"/>
		<path id="Path_585" class="st1" d="M1146.5,215.8c0.4-1,0.9-2,1.3-2.9l0.8,0.6l-2.3,2.2L1146.5,215.8z"/>
		<path id="Path_586" class="st1" d="M776.4,132.3h-2v-0.5h2V132.3z"/>
		<path id="Path_587" class="st1" d="M769.6,133.3v0.4l-0.6-0.4H769.6z"/>
		<path id="Path_588" class="st1" d="M718.5,292c0,0.2,0,0.3,0,0.5c-0.2,0-0.4,0-0.6,0V292H718.5z"/>
		<path id="Path_589" class="st2" d="M713.2,279.1c-1.5-0.1-3,0.1-3.8-1.6l-0.1,0.1l3.8,1.6L713.2,279.1z"/>
		<path id="Path_590" class="st2" d="M705.2,276.3l4.2,1.3l0.1-0.1c-1.6,0.2-3.2,0.5-4.2-1.3L705.2,276.3z"/>
		<path id="Path_591" class="st2" d="M705.3,276.2l-4.4-1.2l-0.1,0.1l4.4,1.2L705.3,276.2z"/>
		<path id="Path_592" class="st1" d="M1003.1,136.5"/>
		<path id="Path_593" class="st1" d="M761.6,135.7l1.9-1.4l0.4,0.9l-2.4,0.4L761.6,135.7z"/>
		<path id="Path_594" class="st2" d="M694.1,167.4l-2,1.1c-0.1-0.3-0.2-0.5-0.3-0.8l2.4-0.2L694.1,167.4z"/>
		<path id="Path_595" class="st2" d="M745,246.1l2.1,0.4c-0.1,0.3-0.3,0.6-0.4,0.9l-1.5-1.4L745,246.1z"/>
		<path id="Path_596" class="st2" d="M687.4,169.3v0.3l-0.4-0.2L687.4,169.3z"/>
		<path id="Path_597" class="st2" d="M790.5,215.6l-1.2-2.9l-0.1,0.1c0.4,1,0.8,1.9,1.1,2.9L790.5,215.6z"/>
		<path id="Path_598" class="st2" d="M758.8,219.7l-0.1,0.3c-0.3,0.3,0,0,0.2-0.2L758.8,219.7z"/>
		<path id="Path_599" class="st1" d="M640.3,240.5l-2.8-1.4l-0.1,0.1l2.8,1.4L640.3,240.5z"/>
		<path id="Path_600" class="st2" d="M713.1,279.2l1,0.4l-0.8-0.5L713.1,279.2z"/>
		<path id="Path_601" class="st1" d="M708.8,289.6c0-0.1,0.1-0.4,0.2-0.4c0.2,0,0.4,0.1,0.6,0.2c-0.1,0.1-0.1,0.4-0.2,0.4
			C709.1,289.7,708.9,289.7,708.8,289.6z"/>
		<path id="Path_602" class="st1" d="M713.7,290.8l-0.2,0.4c-0.1-0.2-0.2-0.4-0.3-0.5L713.7,290.8z"/>
		<path id="Path_603" class="st1" d="M608.6,212.9l2.8-1.2l-0.1-0.1l-2.8,1.2L608.6,212.9z"/>
		<path id="Path_604" class="st1" d="M612.7,181.2l1.4,0.1v-0.1H612.7L612.7,181.2z"/>
		<path id="Path_605" class="st1" d="M612.7,182.6v-1.4h-0.1v1.5L612.7,182.6z"/>
		<path id="Path_606" class="st2" d="M717.5,185.3l-0.3-0.3L717.5,185.3L717.5,185.3z"/>
		<path id="Path_607" class="st2" d="M1024.9,193.6l0.3,0.2L1024.9,193.6L1024.9,193.6z"/>
		<path id="Path_608" class="st2" d="M1020.8,195l0.4,0.2l-0.3-0.3L1020.8,195z"/>
		<path id="Path_609" class="st2" d="M1050,199.1"/>
		<path id="Path_610" class="st2" d="M1049.9,199.1l-0.2,0.2L1049.9,199.1L1049.9,199.1z"/>
		<path id="Path_611" class="st2" d="M1045.7,202l-0.1-0.1L1045.7,202z"/>
		<path id="Path_612" class="st1" d="M611.3,211.7l1.4-1.5l-0.1-0.1l-1.4,1.5L611.3,211.7z"/>
		<path id="Path_613" class="st2" d="M1004.3,211.5l0.2,0.2l-0.1-0.3L1004.3,211.5z"/>
		<path id="Path_614" class="st2" d="M790.4,215.7l1.5,1.3l0,0L790.4,215.7L790.4,215.7z"/>
		<path id="Path_615" class="st1" d="M632,258.4l-0.5-0.2L632,258.4L632,258.4z"/>
		<path id="Path_616" class="st2" d="M769.8,248.9l0.1-0.1L769.8,248.9z"/>
		<path id="Path_617" class="st2" d="M769.9,248.8l-1.3-1.4l-0.1,0.1l1.4,1.4L769.9,248.8z"/>
		<path id="Path_618" class="st2" d="M767.1,246.2l1.4,1.4l0.1-0.1l-1.4-1.4L767.1,246.2z"/>
		<path id="Path_619" class="st2" d="M765.6,244.7l1.5,1.5l0.1-0.1l-1.5-1.5L765.6,244.7z"/>
		<path id="Path_620" class="st1" d="M608.4,243.3l0.5,0.1l-0.4-0.3L608.4,243.3z"/>
		<path id="Path_621" class="st1" d="M632,242l1.4,1.4l0.1-0.1l-1.4-1.4L632,242z"/>
		<path id="Path_622" class="st2" d="M931.1,240.5L931.1,240.5L931.1,240.5z"/>
		<path id="Path_623" class="st1" d="M630.6,240.6l1.4,1.4l0.1-0.1l-1.4-1.4L630.6,240.6z"/>
		<path id="Path_624" class="st2" d="M931.2,240.6L931.2,240.6L931.2,240.6z"/>
		<path id="Path_625" class="st1" d="M629.2,239.2l1.4,1.4l0.1-0.1l-1.4-1.4L629.2,239.2z"/>
		<path id="Path_626" class="st2" d="M961.5,237.7l0.1,0.1L961.5,237.7z"/>
		<path id="Path_627" class="st1" d="M637.6,239.1l-1.5-1.5l-0.1,0.1L637.6,239.1L637.6,239.1z"/>
		<path id="Path_628" class="st1" d="M627.9,237.8l1.4,1.4l0.1-0.1l-1.4-1.4L627.9,237.8z"/>
		<path id="Path_629" class="st2" d="M961.6,237.9c0.5-0.5,1-1,1.4-1.5l-0.1-0.1l-1.5,1.4L961.6,237.9z"/>
		<path id="Path_630" class="st1" d="M628,237.7l-1.4-1.4l-0.1,0.1l1.4,1.4L628,237.7z"/>
		<path id="Path_631" class="st2" d="M1002.9,234.9l-0.1,0.4l0.2-0.3L1002.9,234.9z"/>
		<path id="Path_632" class="st1" d="M626.6,236.3l-1.4-1.4l-0.1,0.1c0.5,0.4,0.9,0.9,1.4,1.4L626.6,236.3z"/>
		<path id="Path_633" class="st1" d="M625.2,235l-1.4-1.4l-0.1,0.1l1.4,1.4L625.2,235z"/>
		<path id="Path_634" class="st1" d="M623.7,233.6l-1.5-1.5l-0.1,0.1L623.7,233.6L623.7,233.6z"/>
		<path id="Path_635" class="st1" d="M615.6,223.9l-1.4-1.4l-0.1,0.1l1.4,1.4L615.6,223.9z"/>
		<path id="Path_636" class="st1" d="M614.2,222.5l-1.4-1.4l-0.1,0.1c0.5,0.4,0.9,0.9,1.4,1.4L614.2,222.5z"/>
		<path id="Path_637" class="st1" d="M612.8,221.2l-1.4-1.3l-0.1,0.1l1.4,1.4L612.8,221.2z"/>
		<path id="Path_638" class="st1" d="M611.3,219.8L611.3,219.8L611.3,219.8z"/>
		<path id="Path_639" class="st2" d="M791.9,217l0.2,0.2L791.9,217L791.9,217z"/>
		<path id="Path_640" class="st1" d="M607,214.2l-0.2,0.4L607,214.2L607,214.2z"/>
		<path id="Path_641" class="st2" d="M819.5,212.9l0.3,0.4l-0.2-0.5L819.5,212.9z"/>
		<path id="Path_642" class="st1" d="M607.1,214.4l1.5-1.5l-0.1-0.1l-1.5,1.5L607.1,214.4z"/>
		<path id="Path_643" class="st1" d="M1190.6,175.7c1.4-7.8,6.7-13.9,9.7-21c1.1-2,2.3-3.8,3.7-5.6c0.4,1.5,0.8,2.2,0.7,2.7
			c-3.2,8.1-7.4,15.7-12.4,22.8C1191.9,175.1,1191.1,175.3,1190.6,175.7L1190.6,175.7z"/>
		<path id="Path_644" class="st1" d="M1190.4,175.6l-1.2,3l0.1,0.1L1190.4,175.6L1190.4,175.6z"/>
	</g>
</g>
<g id="Layer_3">
</g>
</svg>
